<svg width="31" height="45" viewBox="0 0 31 45" fill="none" xmlns="http://www.w3.org/2000/svg">
<path d="M17.2891 2.5C17.2891 1.39543 16.3936 0.5 15.2891 0.5C14.1845 0.5 13.2891 1.39543 13.2891 2.5H17.2891ZM13.8748 43.9142C14.6559 44.6953 15.9222 44.6953 16.7033 43.9142L29.4312 31.1863C30.2122 30.4052 30.2122 29.1389 29.4312 28.3579C28.6501 27.5768 27.3838 27.5768 26.6028 28.3579L15.2891 39.6716L3.97535 28.3579C3.19431 27.5768 1.92798 27.5768 1.14693 28.3579C0.365878 29.1389 0.365878 30.4052 1.14693 31.1863L13.8748 43.9142ZM13.2891 2.5V42.5H17.2891V2.5H13.2891Z" fill="#F8F7E5"/>
</svg>
