<svg width="20" height="21" viewBox="0 0 20 21" fill="none" xmlns="http://www.w3.org/2000/svg">
<mask id="mask0_22121_1805" style="mask-type:alpha" maskUnits="userSpaceOnUse" x="0" y="0" width="20" height="21">
<rect y="0.5" width="20" height="20" fill="#3DCFB6"/>
</mask>
<g mask="url(#mask0_22121_1805)">
<path d="M15.1888 11.3154L3.48858 11.3098C3.32545 11.3097 3.20028 11.2593 3.11307 11.1586C3.02577 11.0577 2.98211 10.9257 2.98211 10.7624C2.98221 10.5993 3.03078 10.4692 3.12781 10.3722C3.22484 10.2752 3.35491 10.2266 3.51804 10.2265L15.1888 10.2209L10.1087 5.14078C10.0002 5.03226 9.94564 4.90483 9.94505 4.7585C9.94456 4.61227 9.99813 4.48533 10.1058 4.3777C10.2135 4.26996 10.3414 4.21541 10.4895 4.21403C10.6378 4.21266 10.7662 4.26623 10.8747 4.37475L16.7944 10.2944C16.9287 10.4287 16.9958 10.5865 16.9958 10.768C16.9958 10.9497 16.9287 11.1076 16.7946 11.2418L10.8748 17.1616C10.7662 17.2701 10.6389 17.3246 10.4926 17.3251C10.3463 17.3257 10.2193 17.2722 10.1117 17.1645C10.0039 17.0568 9.94937 16.9288 9.948 16.7805C9.94662 16.6324 10.0002 16.5041 10.1087 16.3956L15.1888 11.3154Z" fill="#F8F7E5"/>
</g>
</svg>
