<svg width="16" height="17" viewBox="0 0 16 17" fill="none" xmlns="http://www.w3.org/2000/svg">
<mask id="mask0_2286_953" style="mask-type:alpha" maskUnits="userSpaceOnUse" x="0" y="0" width="16" height="17">
<rect y="0.5" width="16" height="16" fill="#D9D9D9"/>
</mask>
<g mask="url(#mask0_2286_953)">
<path d="M7.06927 9.6987L5.63594 8.26536C5.51372 8.14314 5.35816 8.08203 5.16927 8.08203C4.98038 8.08203 4.82483 8.14314 4.7026 8.26536C4.58038 8.38759 4.51927 8.54314 4.51927 8.73203C4.51927 8.92092 4.58038 9.07648 4.7026 9.1987L6.6026 11.0987C6.73594 11.232 6.89149 11.2987 7.06927 11.2987C7.24705 11.2987 7.4026 11.232 7.53594 11.0987L11.3026 7.33203C11.4248 7.20981 11.4859 7.05425 11.4859 6.86536C11.4859 6.67648 11.4248 6.52092 11.3026 6.3987C11.1804 6.27648 11.0248 6.21536 10.8359 6.21536C10.647 6.21536 10.4915 6.27648 10.3693 6.3987L7.06927 9.6987ZM8.0026 15.1654C7.08038 15.1654 6.21372 14.9904 5.4026 14.6404C4.59149 14.2904 3.88594 13.8154 3.28594 13.2154C2.68594 12.6154 2.21094 11.9098 1.86094 11.0987C1.51094 10.2876 1.33594 9.42092 1.33594 8.4987C1.33594 7.57648 1.51094 6.70981 1.86094 5.8987C2.21094 5.08759 2.68594 4.38203 3.28594 3.78203C3.88594 3.18203 4.59149 2.70703 5.4026 2.35703C6.21372 2.00703 7.08038 1.83203 8.0026 1.83203C8.92483 1.83203 9.79149 2.00703 10.6026 2.35703C11.4137 2.70703 12.1193 3.18203 12.7193 3.78203C13.3193 4.38203 13.7943 5.08759 14.1443 5.8987C14.4943 6.70981 14.6693 7.57648 14.6693 8.4987C14.6693 9.42092 14.4943 10.2876 14.1443 11.0987C13.7943 11.9098 13.3193 12.6154 12.7193 13.2154C12.1193 13.8154 11.4137 14.2904 10.6026 14.6404C9.79149 14.9904 8.92483 15.1654 8.0026 15.1654Z" fill="#F8F7E5"/>
</g>
</svg>
