<svg width="16" height="17" viewBox="0 0 16 17" fill="none" xmlns="http://www.w3.org/2000/svg">
<path d="M0.888889 0.6875H15.1111C15.6021 0.6875 16 1.08547 16 1.57639V15.7986C16 16.2895 15.6021 16.6875 15.1111 16.6875H0.888889C0.397964 16.6875 0 16.2895 0 15.7986V1.57639C0 1.08547 0.397964 0.6875 0.888889 0.6875ZM1.77778 2.46528V14.9097H14.2222V2.46528H1.77778ZM4 6.02083C3.26362 6.02083 2.66667 5.42388 2.66667 4.6875C2.66667 3.95112 3.26362 3.35417 4 3.35417C4.73637 3.35417 5.33333 3.95112 5.33333 4.6875C5.33333 5.42388 4.73637 6.02083 4 6.02083ZM3.11111 6.90972H4.88889V13.5764H3.11111V6.90972ZM8.00002 7.2915C8.51948 6.79002 9.12491 6.46528 9.77779 6.46528C11.6187 6.46528 12.8889 7.95763 12.8889 9.79861V13.5764H11.1111V9.79861C11.1111 8.9395 10.4147 8.24306 9.55557 8.24306C8.69646 8.24306 8.00002 8.9395 8.00002 9.79861V13.5764H6.22224V6.90972H8.00002V7.2915Z" fill="#F8F7E5"/>
</svg>
