<svg width="16" height="17" viewBox="0 0 16 17" fill="none" xmlns="http://www.w3.org/2000/svg">
<g clip-path="url(#clip0_2199_407)">
<path d="M14.7972 1.96094H0.867188V15.8909H14.7972V1.96094Z" fill="#FF834F"/>
<path d="M0.89 0.691406H15.11C15.6 0.691406 16 1.09141 16 1.58141V15.8014C16 16.2914 15.6 16.6914 15.11 16.6914H0.89C0.4 16.6914 0 16.2914 0 15.8014V1.58141C0 1.09141 0.4 0.691406 0.89 0.691406ZM1.78 2.47141V14.9114H14.22V2.47141H1.78ZM4 6.02141C3.26 6.02141 2.67 5.42141 2.67 4.69141C2.67 3.96141 3.27 3.36141 4 3.36141C4.73 3.36141 5.33 3.96141 5.33 4.69141C5.33 5.42141 4.73 6.02141 4 6.02141ZM3.11 6.91141H4.89V13.5814H3.11V6.91141ZM8 7.29141C8.52 6.79141 9.12 6.46141 9.78 6.46141C11.62 6.46141 12.89 7.95141 12.89 9.79141V13.5714H11.11V9.79141C11.11 8.93141 10.41 8.23141 9.55 8.23141C8.69 8.23141 7.99 8.93141 7.99 9.79141V13.5714H6.21V6.90141H7.99V7.28141L8 7.29141Z" fill="#F8F7E5"/>
</g>
<defs>
<clipPath id="clip0_2199_407">
<rect width="16" height="16" fill="white" transform="translate(0 0.691406)"/>
</clipPath>
</defs>
</svg>
