<svg width="17" height="19" viewBox="0 0 17 19" fill="none" xmlns="http://www.w3.org/2000/svg">
<g clip-path="url(#clip0_2199_410)">
<path d="M4.93747 18.8304H12.0075C11.7275 18.1804 11.2675 17.3904 11.1075 16.5804C10.8975 15.5204 10.9275 14.3904 10.7975 13.3104C10.6675 12.2304 11.6875 12.3204 12.4375 11.9704C13.1275 11.6504 13.6075 11.3004 14.1175 10.7104C14.6275 10.1204 14.7575 9.28041 14.9375 8.51041C15.1475 7.5904 15.2875 6.7504 14.9975 5.8304C14.7575 5.0604 14.4175 4.3904 14.2675 3.5704C14.1575 2.9404 14.2675 1.4504 13.2675 1.6704C12.5575 1.8304 11.9275 2.3104 11.1975 2.4504C10.4075 2.6004 9.57747 2.5304 8.77747 2.5704C7.85747 2.6104 6.94747 2.6604 6.02747 2.5704C5.67747 2.5404 5.40747 2.4804 5.09747 2.3204C4.91747 2.2304 4.87747 2.1704 4.66747 2.1104C4.49747 2.0604 4.32747 2.0604 4.15747 2.0104C3.43747 1.8404 2.73747 1.7804 2.46747 2.6104C2.27747 3.2004 2.33747 4.0704 2.29747 4.6904C2.18747 6.3004 1.32747 8.1204 2.07747 9.6904C2.54747 10.6804 3.47747 11.2604 4.44747 11.6904C4.79747 11.8504 6.13747 12.2004 6.20747 12.6304C6.24747 12.8504 5.85747 13.3804 5.81747 13.6404C5.70747 14.2504 5.73747 14.8804 5.65747 15.5004C5.53747 16.3504 5.27747 17.1804 5.11747 18.0004C5.05747 18.2804 4.97747 18.5504 4.93747 18.8104C4.93747 18.8604 4.93747 18.8204 4.94747 18.8104L4.93747 18.8304Z" fill="#FF834F"/>
<path d="M2.8233 15.6523C2.5433 15.4623 2.3033 15.2323 2.0233 14.8923C1.9233 14.7723 1.5133 14.2623 1.5933 14.3523C1.1633 13.8223 0.893301 13.5723 0.613301 13.4723C0.133301 13.3023 -0.116699 12.7723 0.0533013 12.2923C0.223301 11.8123 0.753301 11.5623 1.2333 11.7323C1.9333 11.9823 2.4033 12.4123 3.0333 13.2023C2.9433 13.0923 3.3433 13.6023 3.4333 13.7023C3.6133 13.9123 3.7433 14.0423 3.8433 14.1123C4.0333 14.2423 4.3833 14.2923 4.9133 14.2423C4.9333 13.8923 5.0033 13.5423 5.1033 13.2323C2.3533 12.5623 0.803301 10.7923 0.803301 7.31228C0.803301 6.16228 1.1433 5.13228 1.7833 4.26228C1.5833 3.43228 1.6133 2.43228 2.0633 1.31228C2.1633 1.05228 2.3833 0.852284 2.6433 0.772284C2.7233 0.752284 2.7633 0.742284 2.8333 0.732284C3.5733 0.622284 4.6233 0.892284 5.9933 1.75228C6.7933 1.56228 7.6333 1.46228 8.4833 1.46228C9.3333 1.46228 10.1633 1.56228 10.9633 1.74228C12.3333 0.872284 13.3933 0.602284 14.1333 0.722284C14.2133 0.732284 14.2833 0.752284 14.3333 0.772284C14.5933 0.862284 14.8033 1.05228 14.9033 1.31228C15.3533 2.44228 15.3833 3.44228 15.1833 4.26228C15.8233 5.13228 16.1633 6.15228 16.1633 7.31228C16.1633 10.7923 14.6133 12.5523 11.8633 13.2323C11.9833 13.6123 12.0433 14.0423 12.0433 14.5123C12.0433 15.1223 12.0433 15.7123 12.0433 16.3723C12.0433 16.5523 12.0433 16.7323 12.0433 17.0223C12.3933 17.1023 12.6733 17.3723 12.7533 17.7423C12.8533 18.2423 12.5333 18.7323 12.0233 18.8323C10.9733 19.0423 10.1833 18.3423 10.1833 17.4223C10.1833 17.3423 10.1833 17.2223 10.1833 17.0123C10.1833 16.7223 10.1833 16.5323 10.1833 16.3623C10.1833 15.7123 10.1833 15.1223 10.1833 14.5123C10.1833 13.8623 10.0133 13.4423 9.7933 13.2523C9.1833 12.7223 9.4933 11.7223 10.2933 11.6323C13.0433 11.3223 14.3033 10.2623 14.3033 7.32228C14.3033 6.44228 14.0133 5.71228 13.4533 5.09228C13.2133 4.83228 13.1433 4.45228 13.2833 4.12228C13.4333 3.74228 13.5033 3.23228 13.3733 2.63228C12.9133 2.76228 12.3433 3.04228 11.6533 3.51228C11.4233 3.66228 11.1433 3.71228 10.8833 3.64228C10.1233 3.43228 9.3033 3.32228 8.4833 3.32228C7.6633 3.32228 6.8433 3.43228 6.0833 3.64228C5.8233 3.71228 5.5433 3.67228 5.3133 3.52228C4.6133 3.05228 4.0433 2.77228 3.5833 2.64228C3.4533 3.24228 3.5133 3.75228 3.6733 4.13228C3.8033 4.46228 3.7333 4.83228 3.4933 5.10228C2.9433 5.71228 2.6433 6.45228 2.6433 7.33228C2.6433 10.2723 3.9133 11.3423 6.6433 11.6423C7.4433 11.7323 7.7533 12.7323 7.1433 13.2623C6.9633 13.4223 6.7433 13.9423 6.7433 14.5223V17.4423C6.7433 18.3523 5.9733 19.0423 4.9333 18.8623C4.4333 18.7723 4.0933 18.2923 4.1833 17.7923C4.2533 17.4123 4.5433 17.1223 4.8933 17.0423V16.1223C4.0533 16.1823 3.3533 16.0423 2.8033 15.6723L2.8233 15.6523Z" fill="#F8F7E5"/>
</g>
<defs>
<clipPath id="clip0_2199_410">
<rect width="16.16" height="18.17" fill="white" transform="translate(0 0.691406)"/>
</clipPath>
</defs>
</svg>
