<svg width="17" height="19" viewBox="0 0 17 19" fill="none" xmlns="http://www.w3.org/2000/svg">
<path d="M2.81881 15.6427C2.54114 15.4569 2.30215 15.2208 2.02263 14.887C1.92157 14.7662 1.51252 14.2533 1.59146 14.3514C1.16308 13.8191 0.892437 13.5726 0.613439 13.4725C0.132218 13.3 -0.117991 12.7699 0.0545913 12.2888C0.227174 11.8075 0.757187 11.5573 1.23842 11.7299C1.93512 11.9798 2.40639 12.41 3.04119 13.1998C2.95418 13.0916 3.35536 13.5948 3.44207 13.6984C3.61843 13.909 3.74755 14.0365 3.84842 14.104C4.03808 14.231 4.39292 14.2857 4.91368 14.2336C4.93549 13.8798 5.00095 13.5368 5.10076 13.2197C2.35316 12.5482 0.798203 10.7754 0.798203 7.29903C0.798203 6.15225 1.14 5.11835 1.77758 4.2518C1.57608 3.42435 1.60647 2.42363 2.0569 1.29756C2.16018 1.03933 2.37412 0.841225 2.63951 0.758044C2.71551 0.736022 2.75762 0.726229 2.83248 0.714732C3.5757 0.600596 4.62547 0.872393 5.99432 1.72985C6.79642 1.54049 7.63647 1.44441 8.48133 1.44441C9.32527 1.44441 10.1646 1.54031 10.966 1.72931C12.3328 0.865867 13.385 0.594172 14.1335 0.714528C14.2119 0.727136 14.2791 0.74352 14.335 0.761877C14.5951 0.84727 14.8041 1.0434 14.9057 1.29756C15.356 2.42337 15.3865 3.42391 15.1852 4.25124C15.8247 5.11783 16.1644 6.14413 16.1644 7.29903C16.1644 10.7769 14.6147 12.5431 11.8671 13.2162C11.9827 13.6004 12.0437 14.0294 12.0437 14.4937C12.0437 15.1087 12.0414 15.6961 12.037 16.3547C12.0359 16.5308 12.0345 16.7189 12.0325 17.0079C12.38 17.0845 12.6669 17.3592 12.7412 17.7306C12.8414 18.2319 12.5163 18.7196 12.015 18.8199C10.9605 19.0307 10.1791 18.3276 10.1791 17.4087C10.1791 17.3251 10.1798 17.2056 10.1811 16.9953C10.1833 16.7055 10.1846 16.5181 10.1858 16.3426C10.19 15.6877 10.1923 15.1042 10.1923 14.4937C10.1923 13.8483 10.0228 13.4274 9.7981 13.2338C9.18623 12.7063 9.49633 11.703 10.2992 11.6128C13.0451 11.3043 14.3131 10.2408 14.3131 7.29903C14.3131 6.41536 14.0244 5.68466 13.4678 5.0736C13.229 4.81139 13.1611 4.43581 13.2928 4.10653C13.4462 3.72308 13.5116 3.22063 13.3808 2.61263L13.3721 2.61509C12.9168 2.74393 12.3444 3.0225 11.6517 3.49339C11.4257 3.64694 11.1436 3.69288 10.8807 3.61894C10.1213 3.40539 9.30527 3.29576 8.48133 3.29576C7.6573 3.29576 6.84122 3.40539 6.08195 3.61894C5.82041 3.69249 5.53976 3.64744 5.31439 3.49572C4.61776 3.02675 4.04217 2.74849 3.58414 2.61887C3.45136 3.22352 3.51689 3.72418 3.66983 4.10653C3.80154 4.43581 3.73354 4.81139 3.49476 5.0736C2.94205 5.68048 2.64955 6.42339 2.64955 7.29903C2.64955 10.2352 3.91873 11.3059 6.65016 11.6128C7.45115 11.7028 7.76245 12.7024 7.15419 13.2312C6.97609 13.3862 6.75699 13.9088 6.75699 14.4937V17.4087C6.75699 18.3217 5.9842 19.0062 4.94302 18.8239C4.43943 18.7358 4.10265 18.2561 4.19077 17.7526C4.25755 17.371 4.54917 17.0852 4.90565 17.0074V16.0914C4.06317 16.1482 3.36732 16.0097 2.81881 15.6427Z" fill="#F8F7E5"/>
</svg>
