<svg width="32" height="26" viewBox="0 0 32 26" fill="none" xmlns="http://www.w3.org/2000/svg">
<g clip-path="url(#clip0_22173_2286)">
<path d="M25.0906 25.52C24.8506 25.52 24.6106 25.46 24.3906 25.35L19.7206 22.95C18.5206 23.23 17.2706 23.37 16.0106 23.37C7.81063 23.37 2.91062 17.56 0.720625 14.1C-0.219375 12.61 -0.219375 10.75 0.720625 9.26C2.90062 5.81 7.80062 0 16.0006 0C24.2006 0 29.1006 5.81 31.2906 9.27C32.2306 10.76 32.2306 12.62 31.2906 14.11C30.3706 15.57 28.8206 17.65 26.6206 19.46V23.98C26.6206 24.83 25.9306 25.52 25.0906 25.52Z" fill="white"/>
<path d="M24.8394 24.46L19.8294 21.89C18.6494 22.2 17.3694 22.38 15.9894 22.38C8.15938 22.38 3.47938 16.64 1.53938 13.57C0.799375 12.41 0.799375 10.96 1.53938 9.8C3.48938 6.74 8.16938 1 15.9994 1C23.8294 1 28.5094 6.74 30.4494 9.81C31.1894 10.97 31.1894 12.42 30.4494 13.58C29.5094 15.07 27.9094 17.2 25.6194 18.99V23.99C25.6194 24.39 25.1994 24.65 24.8394 24.47V24.46Z" fill="#C7F2FF"/>
<path d="M15.9672 13.5203C16.8508 13.5203 17.5672 12.804 17.5672 11.9203C17.5672 11.0367 16.8508 10.3203 15.9672 10.3203C15.0835 10.3203 14.3672 11.0367 14.3672 11.9203C14.3672 12.804 15.0835 13.5203 15.9672 13.5203Z" fill="white"/>
<path d="M21.6156 13.5203C22.4993 13.5203 23.2156 12.804 23.2156 11.9203C23.2156 11.0367 22.4993 10.3203 21.6156 10.3203C20.732 10.3203 20.0156 11.0367 20.0156 11.9203C20.0156 12.804 20.732 13.5203 21.6156 13.5203Z" fill="white"/>
<path d="M10.3187 13.5203C11.2024 13.5203 11.9187 12.804 11.9187 11.9203C11.9187 11.0367 11.2024 10.3203 10.3187 10.3203C9.43509 10.3203 8.71875 11.0367 8.71875 11.9203C8.71875 12.804 9.43509 13.5203 10.3187 13.5203Z" fill="white"/>
</g>
<defs>
<clipPath id="clip0_22173_2286">
<rect width="32" height="25.52" fill="white"/>
</clipPath>
</defs>
</svg>
