<svg width="130" height="131" viewBox="0 0 130 131" fill="none" xmlns="http://www.w3.org/2000/svg">
<g clip-path="url(#clip0_1059_327)">
<g clip-path="url(#clip1_1059_327)">
<path d="M2.4798 1.45756C4.01573 2.20386 5.55165 2.95015 7.08878 3.69645C14.2183 7.16071 21.3491 10.625 28.4786 14.0892C38.3791 18.8992 48.2795 23.7092 58.18 28.5192C67.4449 33.0211 76.7098 37.5217 85.9747 42.0236C93.0573 45.465 100.094 49.1002 107.408 52.0203C102.217 50.9695 96.7238 52.5415 91.9282 54.5999C87.7718 56.3838 83.8141 58.5962 79.7046 60.4812C75.222 62.5383 70.0834 62.5684 65.5767 60.5654L24.8892 42.4822C9.50943 35.6452 -0.419922 20.2739 -0.419922 3.29923C-0.419922 1.79339 1.13647 0.805153 2.4798 1.45756Z" fill="url(#paint0_linear_1059_327)"/>
<path d="M126.726 71.0172L17.0338 124.605L4.08073 130.933C1.99832 131.95 -0.419922 130.418 -0.419922 128.081V123.661C-0.419922 111.28 6.34489 99.9867 17.0338 94.2029C17.7488 93.8153 18.4818 93.453 19.2317 93.116L78.3649 66.2481L97.0668 57.8764C98.4547 57.2552 99.8811 56.7605 101.33 56.3922C104.176 55.6676 107.109 55.428 110.011 55.6712C113.207 55.9372 116.363 56.7906 119.32 58.2266L126.715 61.8185C130.53 63.6722 130.536 69.1563 126.726 71.0172Z" fill="url(#paint1_linear_1059_327)"/>
</g>
</g>
<defs>
<linearGradient id="paint0_linear_1059_327" x1="53.494" y1="62.046" x2="53.494" y2="1.25293" gradientUnits="userSpaceOnUse">
<stop stop-color="#2E3EDF"/>
<stop offset="1" stop-color="#7E03EA"/>
</linearGradient>
<linearGradient id="paint1_linear_1059_327" x1="-4.23927" y1="123.12" x2="121.714" y2="56.0925" gradientUnits="userSpaceOnUse">
<stop stop-color="#7E03EA"/>
<stop offset="1" stop-color="#2E3EDF"/>
</linearGradient>
<clipPath id="clip0_1059_327">
<rect width="130" height="130" fill="white" transform="translate(0 0.89679)"/>
</clipPath>
<clipPath id="clip1_1059_327">
<rect width="130" height="130" fill="white" transform="translate(-0.419922 1.25293)"/>
</clipPath>
</defs>
</svg>
