<svg width="130" height="130" viewBox="0 0 130 130" fill="none" xmlns="http://www.w3.org/2000/svg">
<g clip-path="url(#clip0_5808_4242)">
<path d="M96.5895 49.8915V69.7887C96.5895 84.5631 84.5855 96.5534 69.7942 96.5534H49.9114C47.7559 96.5534 45.7118 97.4072 44.1881 98.9292L26.9068 116.191C21.8153 121.276 25.4202 130 32.6301 130H103.205C117.996 130 130 118.01 130 103.235V32.7042C130 25.5026 121.304 21.9018 116.175 26.9874L98.8937 44.249C97.3699 45.771 96.5152 47.8127 96.5152 49.9657L96.5895 49.8915ZM60.2058 33.4466H80.1258C82.2813 33.4466 84.3253 32.5928 85.8491 31.0708L103.13 13.8093C108.222 8.72359 104.617 0 97.4071 0H26.7953C12.004 0 0 11.9903 0 26.7647V97.2958C0 104.497 8.69639 108.098 13.825 103.013L31.1063 85.751C32.6301 84.229 33.4848 82.1873 33.4848 80.0343V60.1371C33.4848 45.3627 45.4888 33.3724 60.2802 33.3724L60.2058 33.4466Z" fill="#01B676"/>
</g>
<defs>
<clipPath id="clip0_5808_4242">
<rect width="130" height="130" fill="white" transform="translate(-0.419922 0.35614)"/>
</clipPath>
</defs>
</svg>
