<svg width="80" height="80" viewBox="0 0 80 80" fill="none" xmlns="http://www.w3.org/2000/svg">
<rect width="80" height="80" rx="40" fill="#679AAC"/>
<g clip-path="url(#clip0_2391_2522)">
<path d="M15.5564 43.302L16.4887 47.2851L30.2533 44.5024L19.4226 53.5326L21.9726 56.7246L33.1871 48.2672L27.3468 61.0624L31.0484 62.8357L37.4646 50.3952L37.7936 64.4453H41.9065L42.2356 50.4498L48.6791 62.9721L52.3808 61.1988L46.5678 48.4582L57.8372 56.9701L60.3872 53.7509L49.6114 44.7752L63.4582 47.5852L64.3905 43.6021L50.7356 40.1646L64.4453 36.6998L63.5405 32.7166L49.7485 35.4994L60.5792 26.4691L58.0292 23.2772L46.8146 31.7345L52.6549 18.9394L48.9533 17.166L42.5372 29.6338L42.2081 15.5564H38.0952L37.7662 29.552L31.35 17.0296L27.621 18.803L33.4339 31.5435L22.1645 23.0316L19.6145 26.2509L30.3904 35.2266L16.5435 32.4165L15.6387 36.3997L29.2662 39.8372L15.5564 43.302Z" fill="#F9AF42"/>
</g>
<g clip-path="url(#clip1_2391_2522)">
<path d="M35.5825 79.8848C35.793 79.9356 35.9963 79.9646 36.1996 79.9864C36.6133 80.0227 36.9981 79.9864 37.3538 79.8775C37.7023 79.7686 37.9927 79.5944 38.2104 79.3548C38.4282 79.1152 38.5516 78.8249 38.5879 78.4764C38.617 78.1497 38.5589 77.8666 38.4137 77.627C38.2685 77.3947 38.0798 77.1915 37.8475 77.0172C37.6152 76.843 37.3756 76.6833 37.136 76.5454C36.8965 76.4074 36.6859 76.2768 36.5045 76.1606C36.323 76.0445 36.1778 75.9138 36.0761 75.7759C35.9745 75.6379 35.931 75.4782 35.9455 75.304C35.96 75.1733 36.0035 75.0499 36.0907 74.9192C36.1778 74.7886 36.3084 74.6869 36.4827 74.6143C36.715 74.6361 36.9545 74.6797 37.2014 74.7595C37.3756 74.8103 37.5426 74.8902 37.7023 74.9846L38.0144 76.2332L38.6388 76.2913C38.6896 76.1316 38.7331 75.9501 38.7767 75.7468C38.8202 75.5436 38.8565 75.3403 38.8783 75.1515C38.9001 74.9628 38.9146 74.8103 38.9219 74.6942C38.7549 74.5563 38.5516 74.4401 38.3193 74.3312C38.087 74.2296 37.8475 74.1497 37.5934 74.0844C37.3393 74.0191 37.1143 73.9828 36.9037 73.961C36.519 73.9247 36.156 73.961 35.8221 74.0626C35.4881 74.1642 35.205 74.3385 34.9872 74.5853C34.7622 74.8249 34.6388 75.137 34.6025 75.5073C34.5734 75.8557 34.6242 76.1461 34.7622 76.3857C34.9001 76.6252 35.0888 76.8358 35.3212 77.01C35.5535 77.1842 35.793 77.3439 36.0544 77.4891C36.2867 77.627 36.5045 77.7577 36.6932 77.8739C36.8892 77.99 37.0417 78.1207 37.1506 78.2441C37.2667 78.3748 37.3103 78.52 37.303 78.6869C37.2885 78.8103 37.2449 78.941 37.1651 79.0644C37.0852 79.1878 36.9763 79.2822 36.8384 79.3476C36.5045 79.333 36.1778 79.2532 35.8729 79.1225C35.793 79.0935 35.7277 79.0354 35.6551 78.9918L35.4881 77.9973L34.7912 77.9319C34.7331 78.1062 34.6896 78.2877 34.6533 78.4764C34.617 78.6652 34.5879 78.8539 34.5589 79.0354C34.5371 79.2169 34.5153 79.3766 34.5008 79.5145C34.6388 79.5871 34.7985 79.6525 34.9872 79.7178C35.176 79.7831 35.3647 79.8339 35.5752 79.8848H35.5825Z" fill="#F8F7E5"/>
<path d="M32.8613 73.4751C32.5927 73.3227 32.2951 73.2283 31.9539 73.1993L30.6036 73.5623L30.6907 74.0269C30.8722 73.9906 31.0465 73.9688 31.2062 73.9615C31.3659 73.9615 31.5183 73.9688 31.6635 73.9978C31.9321 74.0559 32.1427 74.1721 32.3024 74.3463C32.4621 74.5205 32.5637 74.731 32.6073 74.9779C32.6508 75.232 32.6436 75.5006 32.5782 75.7909C32.5274 76.0087 32.4475 76.2192 32.3241 76.437C32.208 76.6548 32.041 76.8363 31.8378 76.9815C31.6563 76.8726 31.4893 76.7202 31.3514 76.5314C31.2062 76.3427 31.0828 76.1249 30.9811 75.878L29.914 76.3064C29.9575 76.5387 30.0446 76.7347 30.1753 76.9089C30.306 77.0831 30.4584 77.2211 30.6472 77.3372C30.8359 77.4534 31.0392 77.5332 31.2642 77.584C31.6563 77.6712 32.0265 77.6566 32.3895 77.5477C32.7452 77.4316 33.0574 77.2356 33.3114 76.9452C33.5655 76.6548 33.7397 76.2918 33.8414 75.849C33.914 75.5078 33.9285 75.1884 33.8704 74.8835C33.8123 74.5786 33.7034 74.31 33.5292 74.0704C33.355 73.8309 33.1445 73.6349 32.8759 73.4824L32.8613 73.4751Z" fill="#F8F7E5"/>
<path d="M26.8848 74.1795L26.2242 73.9471C26.1444 74.0488 26.0645 74.1649 25.9774 74.2956C25.8903 74.4263 25.8104 74.5642 25.7378 74.7094C25.6652 74.8546 25.5999 74.9925 25.5418 75.1304C25.4837 75.2684 25.4329 75.3845 25.4039 75.4934C25.4983 75.6459 25.6362 75.762 25.8104 75.8564C25.9919 75.9435 26.1879 75.9871 26.4057 75.9798L27.5454 75.3845L27.3277 76.0016L27.6035 76.5388C27.8576 76.6114 28.1189 76.6695 28.3876 76.713C28.6634 76.7566 28.9175 76.7711 29.1643 76.7638L29.2442 76.35L28.6561 76.0597L29.6289 73.2938C29.6797 73.2938 29.7233 73.2938 29.7741 73.2938C29.9774 73.2938 30.1589 73.2793 30.3258 73.243L30.3984 72.9526L29.5563 72.655L28.6126 72.321L27.7632 72.0234L27.589 72.4154C27.6616 72.4952 27.7487 72.5751 27.8576 72.6622C27.9665 72.7493 28.0754 72.8292 28.1915 72.9018C28.2569 72.9381 28.3077 72.9744 28.3658 73.0034L27.7705 74.7021C27.7705 74.7021 27.756 74.7094 27.7487 74.7167C27.5527 74.8401 27.3712 74.9344 27.197 75.007C27.0228 75.0796 26.8485 75.1304 26.6816 75.1667L26.8631 74.1795H26.8848Z" fill="#F8F7E5"/>
<path d="M25.9949 72.2828C25.9658 71.8836 25.8497 71.5351 25.6391 71.2302C25.4286 70.9253 25.1528 70.6858 24.8188 70.5188C24.4849 70.3518 24.1437 70.2792 23.788 70.2937C23.4322 70.3083 23.0983 70.4244 22.7789 70.6349C22.4595 70.8455 22.1981 71.1721 21.9803 71.6005C21.7626 72.036 21.6682 72.4498 21.69 72.8346C21.7117 73.2193 21.8279 73.5605 22.0312 73.8582C22.2344 74.1558 22.503 74.3881 22.837 74.5551C23.1709 74.722 23.5194 74.8019 23.8823 74.7874C24.2453 74.7801 24.5938 74.6712 24.9132 74.4607C25.2399 74.2502 25.5085 73.938 25.719 73.5097C25.9295 73.0887 26.0239 72.6821 25.9949 72.2828ZM24.8188 72.203C24.768 72.4426 24.6809 72.6894 24.5502 72.9435C24.4268 73.1903 24.2961 73.4081 24.1437 73.5968C23.9912 73.7856 23.8388 73.9235 23.6863 74.0034C23.621 74.0179 23.5484 74.0179 23.4613 74.0034C23.3814 73.9888 23.2943 73.9598 23.2217 73.9235C23.0402 73.8364 22.9241 73.6912 22.8805 73.5024C22.837 73.3137 22.8442 73.0959 22.9023 72.8491C22.9604 72.6023 23.0548 72.3482 23.1854 72.0868C23.2653 71.9344 23.3524 71.7747 23.454 71.6222C23.5557 71.4698 23.6646 71.3391 23.7807 71.2375C23.8969 71.1358 24.0203 71.0705 24.1582 71.0487C24.2598 71.0632 24.3542 71.0995 24.4413 71.1431C24.6373 71.2375 24.7607 71.3827 24.8116 71.5714C24.8696 71.7602 24.8696 71.9779 24.8116 72.2175L24.8188 72.203Z" fill="#F8F7E5"/>
<path d="M21.8772 69.7632C21.928 69.7777 21.9788 69.7923 22.0369 69.8068C22.2329 69.8503 22.4144 69.8794 22.5886 69.8866L22.7266 69.6253L21.9788 69.1462L21.6159 68.9139L20.614 68.275L20.3527 68.6162C20.4253 68.7614 20.5269 68.9211 20.6649 69.0736C20.6939 69.1099 20.7229 69.1316 20.7447 69.1607L17.8772 73.6688L18.0369 74.2351C18.262 74.3658 18.5015 74.4819 18.7629 74.5835C19.0242 74.6852 19.271 74.7578 19.5106 74.8086L19.6921 74.4166L19.1767 74.0028L21.8772 69.756V69.7632Z" fill="#F8F7E5"/>
<path d="M19.409 68.1099C19.4598 68.1317 19.5106 68.1462 19.5614 68.168C19.7575 68.2333 19.9317 68.2696 20.1059 68.2914L20.2656 68.0373L19.7575 67.6526L19.6558 67.5727L19.5614 67.5001L19.2203 67.2388L18.2765 66.5201L17.9861 66.8395C18.0442 66.9919 18.1313 67.1517 18.2547 67.3259C18.2838 67.3622 18.3056 67.384 18.3273 67.4203L15.0896 71.6671L15.1985 72.2406C15.4163 72.393 15.6413 72.5237 15.8881 72.6471C16.135 72.7705 16.3745 72.8649 16.6141 72.9375L16.8246 72.56L16.3455 72.1099L19.3945 68.1099H19.409Z" fill="#F8F7E5"/>
<path d="M15.488 64.1898C15.4372 63.8413 15.2774 63.5147 15.0016 63.2243L13.811 62.9702C13.8691 62.8468 13.9127 62.7234 13.9272 62.5927C13.9417 62.4475 13.9417 62.3096 13.9127 62.1862C13.8909 62.0628 13.8401 61.9611 13.7747 61.8885L12.6495 61.4747L12.4099 61.7942C12.4753 61.845 12.5333 61.8958 12.5914 61.9393C12.6495 61.9829 12.6931 62.0265 12.7366 62.0773C12.7802 62.1208 12.8019 62.1789 12.8019 62.2297C12.8019 62.2878 12.7802 62.3314 12.7366 62.3677L8.98344 65.7651V66.3531C9.17218 66.5419 9.37545 66.7161 9.59323 66.8831C9.81102 67.0501 10.0361 67.188 10.2539 67.2969L10.5297 66.9629L10.145 66.433L11.1613 65.511C11.2484 65.6707 11.3428 65.8305 11.4807 65.9756C11.713 66.237 11.9671 66.4257 12.243 66.5491C12.5188 66.6726 12.8019 66.7452 13.0923 66.7524C13.3827 66.7597 13.6658 66.7089 13.9417 66.6072C14.2176 66.5056 14.4716 66.3459 14.6967 66.1353C14.9871 65.874 15.1976 65.5691 15.3428 65.2279C15.4807 64.8867 15.5315 64.5383 15.4807 64.1825L15.488 64.1898ZM14.1377 64.7125C14.0361 64.9085 13.8981 65.0827 13.7166 65.2497C13.5134 65.4312 13.2883 65.5764 13.0415 65.678C12.7947 65.7796 12.5551 65.8232 12.3228 65.7942C12.1631 65.649 12.0324 65.482 11.9453 65.3005C11.8872 65.1771 11.8437 65.0537 11.8147 64.9303L13.5932 63.3187C13.5932 63.3187 13.6078 63.3187 13.615 63.3259C13.811 63.4203 13.9562 63.5219 14.0578 63.6381C14.1958 63.7905 14.2684 63.9575 14.2756 64.1462C14.2829 64.335 14.2393 64.5237 14.1377 64.7197V64.7125Z" fill="#F8F7E5"/>
<path d="M11.2172 62.3151C11.602 62.0465 11.8851 61.7344 12.0521 61.3786C12.2191 61.0229 12.2844 60.6527 12.2481 60.2825C12.2118 59.9122 12.0884 59.571 11.8706 59.2589C11.6601 58.954 11.3987 58.7217 11.0793 58.5619C10.7599 58.4022 10.4114 58.3369 10.0339 58.3732C9.65644 58.4022 9.26443 58.5547 8.86515 58.8305C8.46588 59.1064 8.1755 59.4186 8.00853 59.767C7.84156 60.1155 7.76897 60.4712 7.80526 60.8269C7.84156 61.1899 7.96497 61.5166 8.17549 61.8287C8.38602 62.1336 8.65463 62.3732 8.97405 62.5402C9.30073 62.7071 9.64918 62.7797 10.0339 62.7579C10.4187 62.7362 10.8107 62.5837 11.2027 62.3151H11.2172ZM9.19909 61.7561C9.13375 61.7344 9.06842 61.6981 9.00308 61.6472C8.93774 61.5964 8.87967 61.5311 8.82885 61.4585C8.7127 61.2915 8.68366 61.11 8.73448 60.9213C8.7853 60.7325 8.90145 60.5438 9.06842 60.3623C9.23539 60.1736 9.44591 59.9993 9.68548 59.8324C9.83067 59.7307 9.98312 59.6436 10.1428 59.5565C10.3098 59.4694 10.4622 59.4113 10.6147 59.375C10.7671 59.3387 10.9051 59.346 11.0358 59.3895C11.1156 59.4549 11.1809 59.5275 11.239 59.6073C11.3624 59.7815 11.3987 59.9703 11.3552 60.159C11.3116 60.355 11.21 60.5365 11.0503 60.7253C10.8906 60.914 10.6873 61.081 10.455 61.248C10.2299 61.4004 10.0049 61.5238 9.77985 61.6182C9.5548 61.7126 9.3588 61.7561 9.18457 61.7489L9.19909 61.7561Z" fill="#F8F7E5"/>
<path d="M9.86774 56.3493C9.8387 56.2331 9.79515 56.1025 9.72255 55.9573C9.64995 55.8121 9.58462 55.6742 9.4975 55.5362C9.41039 55.3983 9.33053 55.2894 9.24342 55.2023L7.72618 55.2604L8.82962 54.1642C8.80059 54.0553 8.75703 53.9319 8.69895 53.7867C8.63362 53.6488 8.56102 53.5108 8.48117 53.3729C8.40131 53.235 8.3142 53.1261 8.21983 53.0317L4.57553 53.4818C4.57553 53.4818 4.5102 53.4237 4.48116 53.3947C4.38679 53.3148 4.29241 53.2422 4.19078 53.1696L3.84958 53.3584L4.05285 53.7867L4.14722 53.9827L4.33597 54.3747L4.74976 55.2458L5.16356 55.0571V54.578L7.61728 53.8665L7.65358 53.9391L6.95666 54.4328L5.17808 56.0517L5.83144 57.1478L6.95666 56.0299L8.59006 55.9065L8.62636 55.9863L7.92944 56.5163L6.57191 57.7431C6.57191 57.7431 6.55739 57.7286 6.54287 57.7213C6.44849 57.6415 6.34686 57.5616 6.25249 57.489L5.91129 57.685L6.12907 58.1424L6.39042 58.7014L6.81873 59.6016L7.23253 59.4128V58.8756L9.875 56.3275L9.86774 56.3493Z" fill="#F8F7E5"/>
<path d="M4.04274 51.7243L6.87395 50.9621C6.90299 51.0056 6.91751 51.0346 6.94655 51.0782C7.0627 51.2452 7.17885 51.3831 7.30226 51.4993L7.57812 51.3976L7.41841 50.8096L7.25145 50.1853L6.96107 49.1109L6.54001 49.1907C6.4892 49.3504 6.46016 49.5174 6.4529 49.7062C6.4529 49.7207 6.4529 49.7425 6.4529 49.757L4.13711 50.3813C4.02822 50.2797 3.92658 50.178 3.84673 50.0691C3.74509 49.9385 3.6725 49.815 3.64346 49.6989C3.59264 49.5247 3.62168 49.3722 3.72332 49.2343C3.83221 49.0964 4.02821 48.9875 4.31134 48.9149L6.2206 48.3994C6.33675 48.5664 6.4529 48.7043 6.57631 48.8205L6.85217 48.7189L6.61987 47.8622L6.53276 47.5428L6.24237 46.4684L5.82132 46.5483C5.7705 46.708 5.74872 46.8895 5.74146 47.1072C5.74146 47.1435 5.74146 47.1726 5.74146 47.2089L3.89754 47.7098C3.6725 47.7679 3.49827 47.8259 3.36034 47.8695C3.22967 47.9131 3.12803 47.9566 3.04818 47.9929C2.97558 48.0292 2.91751 48.0655 2.88121 48.1091C2.77232 48.2252 2.69246 48.3486 2.64165 48.4938C2.59083 48.639 2.56179 48.7769 2.54727 48.9221C2.54001 49.0601 2.54727 49.1907 2.56905 49.3069C2.65616 49.4593 2.78683 49.6336 2.96106 49.8223C3.13529 50.0111 3.33856 50.1998 3.57813 50.4031C3.62169 50.4394 3.67976 50.4757 3.72332 50.512L3.33856 50.6136L3.04092 51.1435C3.12077 51.3904 3.22241 51.6444 3.33856 51.8913C3.46197 52.1381 3.59264 52.3631 3.73783 52.5664L4.12259 52.3994L4.02822 51.7461L4.04274 51.7243Z" fill="#F8F7E5"/>
<path d="M5.59056 43.2148C5.67042 43.1495 5.74301 43.0624 5.8156 42.9608C5.8882 42.8591 5.96079 42.743 6.02613 42.6341C6.09147 42.5252 6.13502 42.4163 6.16406 42.3292C6.06969 42.2058 5.93176 42.0969 5.77205 41.988C5.60508 41.8791 5.44537 41.8065 5.30018 41.7629C5.22758 41.821 5.15499 41.9009 5.07514 41.988C4.99528 42.0824 4.92994 42.184 4.85735 42.2929C4.79201 42.4018 4.7412 42.5107 4.71942 42.6123C4.79928 42.7285 4.92268 42.8373 5.08965 42.9462C5.25662 43.0551 5.42359 43.1422 5.59056 43.2076V43.2148Z" fill="#F8F7E5"/>
<path d="M0.125002 37.327C0.233895 37.6755 0.408124 37.9659 0.647689 38.1837C0.887253 38.4014 1.17763 38.5321 1.52609 38.5611C1.85277 38.5902 2.13589 38.5321 2.37545 38.3869C2.61502 38.2417 2.81103 38.053 2.98526 37.8207C3.15949 37.5884 3.31919 37.3488 3.46438 37.1092C3.60231 36.8697 3.73298 36.6592 3.84914 36.4777C3.96529 36.2962 4.09596 36.151 4.23389 36.0566C4.37182 35.9622 4.53153 35.9114 4.70576 35.9259C4.83643 35.9405 4.95984 35.984 5.09052 36.0711C5.22119 36.1582 5.32282 36.2889 5.39542 36.4631C5.37364 36.6954 5.33008 36.935 5.25023 37.1818C5.19941 37.3561 5.11956 37.523 5.02518 37.6827L3.77654 37.9949L3.71847 38.6192C3.87818 38.67 4.05966 38.7136 4.26293 38.7572C4.4662 38.8007 4.66946 38.837 4.85821 38.8588C5.04696 38.8806 5.19941 38.8951 5.31556 38.9023C5.4535 38.7354 5.56965 38.5321 5.67854 38.2998C5.78017 38.0675 5.86003 37.8279 5.92536 37.5739C5.9907 37.3198 6.02699 37.0947 6.04877 36.8842C6.08507 36.4994 6.04877 36.1365 5.94714 35.8025C5.84551 35.4686 5.67128 35.1855 5.42445 34.9604C5.18489 34.7354 4.87273 34.612 4.5025 34.5757C4.15404 34.5466 3.86366 34.5974 3.62409 34.7354C3.38453 34.8733 3.174 35.0621 2.99977 35.2944C2.82555 35.5267 2.66583 35.7735 2.52064 36.0276C2.38271 36.2599 2.25204 36.4704 2.13589 36.6664C2.01974 36.8624 1.88907 37.0149 1.76566 37.1238C1.63498 37.2399 1.48979 37.2835 1.31556 37.269C1.19215 37.2544 1.06148 37.2109 0.938066 37.1383C0.814653 37.0584 0.72028 36.9495 0.654944 36.8116C0.676723 36.4777 0.749322 36.151 0.879993 35.8461C0.916291 35.7662 0.967108 35.7009 1.01067 35.6283L2.00522 35.4686L2.07056 34.7717C1.89633 34.7136 1.71484 34.67 1.52609 34.6337C1.33734 34.5974 1.14859 34.5684 0.974365 34.5394C0.792877 34.5176 0.633171 34.4958 0.495239 34.4813C0.422644 34.6192 0.357304 34.7862 0.291968 34.9677C0.226632 35.1492 0.175819 35.3452 0.125002 35.5557C0.0741854 35.7662 0.0451479 35.9695 0.0233693 36.1728C-0.0129285 36.5866 0.0233703 36.9713 0.132263 37.3198L0.125002 37.327Z" fill="#F8F7E5"/>
<path d="M3.06603 33.2763C3.35641 33.5304 3.71939 33.7046 4.16222 33.8062C4.50342 33.8788 4.82284 33.8933 5.12774 33.8353C5.43264 33.7772 5.70124 33.6683 5.94081 33.4941C6.18037 33.3271 6.37638 33.1093 6.52883 32.8407C6.68128 32.5721 6.77565 32.2745 6.80469 31.9333L6.44897 30.583L5.98436 30.6701C6.02066 30.8516 6.04244 31.0258 6.0497 31.1855C6.0497 31.3452 6.04244 31.4977 6.0134 31.6429C5.95532 31.9115 5.83917 32.122 5.66494 32.2817C5.49071 32.4414 5.28019 32.5431 5.0261 32.5866C4.77202 32.6302 4.50342 32.6229 4.21303 32.5576C3.99525 32.5068 3.78472 32.4269 3.56694 32.3035C3.35641 32.1873 3.16766 32.0204 3.02247 31.8171C3.13136 31.6356 3.28382 31.4687 3.47256 31.3307C3.66131 31.1855 3.8791 31.0621 4.12592 30.9605L3.69761 29.8933C3.4653 29.9369 3.26929 30.024 3.09507 30.1547C2.92084 30.2853 2.78291 30.4378 2.66676 30.6265C2.5506 30.8153 2.47075 31.0186 2.41993 31.2436C2.33281 31.6356 2.34734 32.0059 2.45623 32.3688C2.57238 32.7246 2.76839 33.0367 3.05877 33.2908L3.06603 33.2763Z" fill="#F8F7E5"/>
<path d="M3.96316 28.6327L6.72903 29.6055C6.72903 29.6563 6.72903 29.6999 6.72903 29.7507C6.72903 29.9539 6.74355 30.1354 6.77985 30.3024L7.07023 30.375L7.2735 29.7942L7.69455 28.5964L7.99219 27.747L7.60017 27.5728C7.52032 27.6454 7.44047 27.7325 7.35335 27.8414C7.26624 27.9503 7.18638 28.0592 7.11379 28.1754C7.07749 28.2334 7.04119 28.2915 7.01215 28.3496L5.31343 27.7543C5.31343 27.7543 5.30617 27.7398 5.29891 27.7325C5.17549 27.5365 5.08112 27.355 5.00852 27.1808C4.93593 27.0066 4.88512 26.8324 4.84882 26.6654L5.83611 26.8469L6.06842 26.1863C5.96679 26.1064 5.85063 26.0265 5.71996 25.9394C5.58929 25.8523 5.45136 25.7725 5.30617 25.6999C5.16098 25.6273 5.02304 25.5619 4.88511 25.5039C4.74718 25.4458 4.63103 25.395 4.52214 25.3659C4.36969 25.4603 4.25354 25.5982 4.15916 25.7725C4.07205 25.954 4.02849 26.15 4.03575 26.3677L4.63103 27.5075L4.01397 27.2897L3.47677 27.5583C3.40417 27.8124 3.3461 28.0737 3.30254 28.3423C3.25898 28.6109 3.24446 28.8723 3.25172 29.1191L3.66551 29.199L3.9559 28.6109L3.96316 28.6327Z" fill="#F8F7E5"/>
<path d="M9.49189 24.7909C9.65886 24.457 9.73146 24.1158 9.71694 23.7601C9.70242 23.4044 9.58627 23.0704 9.37574 22.751C9.16521 22.4316 8.83853 22.1702 8.41022 21.9525C7.97465 21.7347 7.56086 21.633 7.1761 21.6548C6.79135 21.6766 6.45015 21.7927 6.15251 21.996C5.85487 22.1993 5.62256 22.4679 5.45559 22.8018C5.28863 23.1358 5.20877 23.4842 5.22329 23.8472C5.23781 24.2102 5.33944 24.5586 5.54997 24.878C5.76049 25.2047 6.07266 25.4733 6.50097 25.6838C6.92202 25.8944 7.32855 25.9887 7.72782 25.9597C8.1271 25.9307 8.47556 25.8145 8.78046 25.604C9.08536 25.3935 9.32492 25.1176 9.49189 24.7837V24.7909ZM8.44652 24.7837C8.25777 24.8417 8.03999 24.8417 7.80042 24.7837C7.56086 24.7329 7.31403 24.6457 7.05995 24.5151C6.81313 24.3917 6.59534 24.2537 6.40659 24.1085C6.21784 23.9561 6.07991 23.8036 6.00006 23.6512C5.98554 23.5858 5.98554 23.5132 6.00006 23.4261C6.01458 23.3463 6.04362 23.2592 6.07991 23.1866C6.16703 23.0051 6.31222 22.8889 6.50097 22.8454C6.68972 22.8018 6.9075 22.8091 7.15433 22.8672C7.40115 22.9252 7.65523 23.0196 7.91657 23.1503C8.06902 23.2301 8.22873 23.3172 8.38118 23.4189C8.53363 23.5205 8.6643 23.6294 8.76594 23.7456C8.86757 23.8617 8.93291 23.9851 8.95469 24.123C8.94017 24.2247 8.90387 24.3191 8.86031 24.4062C8.76594 24.5949 8.62075 24.7256 8.432 24.7764L8.44652 24.7837Z" fill="#F8F7E5"/>
<path d="M6.00661 19.1649L10.2462 21.8655C10.2317 21.9163 10.2171 21.9671 10.2026 22.0252C10.1591 22.2212 10.13 22.4027 10.1228 22.5769L10.3841 22.7148L10.8632 21.9671L11.0955 21.6041L11.7344 20.6023L11.3932 20.341C11.248 20.4136 11.0883 20.5152 10.9358 20.6531C10.8995 20.6822 10.8778 20.7112 10.8487 20.733L6.34055 17.8655L5.77431 18.0252C5.64364 18.2502 5.52748 18.4898 5.42585 18.7511C5.32421 19.0052 5.25162 19.2593 5.19354 19.4989L5.58556 19.6804L5.99935 19.1649H6.00661Z" fill="#F8F7E5"/>
<path d="M7.91071 16.3332L11.9107 19.3895C11.8962 19.4403 11.8744 19.4911 11.8599 19.5419C11.7946 19.7379 11.7583 19.9122 11.7365 20.0864L11.9906 20.2461L12.3753 19.7379L12.7891 19.2007L13.5078 18.257L13.1884 17.9666C13.0359 18.0247 12.869 18.1118 12.702 18.2352C12.6657 18.2642 12.6439 18.286 12.6076 18.3078L8.36807 15.0628L7.79456 15.1717C7.64211 15.3822 7.51144 15.6145 7.38803 15.8613C7.26462 16.1082 7.17024 16.3477 7.09765 16.5873L7.47514 16.7978L7.92523 16.3187L7.91071 16.3332Z" fill="#F8F7E5"/>
<path d="M13.5814 10.1405L14.5033 11.1568C14.3436 11.2439 14.1839 11.3383 14.0387 11.4763C13.7774 11.7086 13.5886 11.9626 13.4652 12.2385C13.3418 12.5144 13.2692 12.7975 13.2619 13.0879C13.2547 13.3782 13.3055 13.6614 13.4071 13.9372C13.5088 14.2131 13.6685 14.4672 13.879 14.6922C14.1403 14.9826 14.4452 15.1931 14.7864 15.3311C15.1276 15.469 15.4761 15.5198 15.8318 15.469C16.1803 15.4182 16.5069 15.2585 16.7973 14.9826L17.0514 13.792C17.1748 13.8501 17.2982 13.8937 17.4289 13.9082C17.5741 13.9227 17.712 13.9227 17.8354 13.9009C17.9589 13.8792 18.0605 13.8283 18.1331 13.763L18.5469 12.6378L18.2275 12.3982C18.1766 12.4635 18.1258 12.5216 18.0823 12.5797C18.0387 12.6378 17.9951 12.6813 17.9443 12.7249C17.8935 12.7684 17.8427 12.7902 17.7919 12.7902C17.7338 12.7902 17.6903 12.7684 17.6467 12.7249L14.2492 8.97172H13.6612C13.4725 9.16047 13.2982 9.36373 13.1313 9.58152C12.9643 9.80656 12.8264 10.0243 12.7175 10.2421L13.0514 10.518L13.5814 10.1332V10.1405ZM16.3763 14.0461C16.2238 14.1841 16.0569 14.2566 15.8681 14.2639C15.6794 14.2712 15.4906 14.2276 15.2946 14.126C15.0986 14.0243 14.9244 13.8864 14.7574 13.7049C14.5759 13.5017 14.4307 13.2766 14.3291 13.0298C14.2275 12.783 14.1839 12.5434 14.2129 12.3111C14.3581 12.1514 14.5251 12.0207 14.7066 11.9336C14.83 11.8755 14.9534 11.832 15.0768 11.8029L16.6884 13.5815C16.6884 13.5815 16.6884 13.596 16.6812 13.6033C16.5868 13.7993 16.4779 13.9445 16.369 14.0461H16.3763Z" fill="#F8F7E5"/>
<path d="M18.641 12.044C18.9968 12.2109 19.367 12.2763 19.7372 12.2472C20.1075 12.2109 20.4487 12.0875 20.7608 11.8697C21.0657 11.6592 21.298 11.3979 21.4577 11.0784C21.6174 10.759 21.6828 10.4106 21.6465 10.0331C21.6174 9.65558 21.465 9.26357 21.1891 8.86429C20.9133 8.46502 20.6011 8.17464 20.2527 8.00767C19.9042 7.8407 19.5485 7.7681 19.1928 7.8044C18.8298 7.8407 18.5031 7.96411 18.1909 8.17463C17.886 8.38516 17.6465 8.65377 17.4795 8.97319C17.3125 9.29986 17.24 9.64832 17.2617 10.0331C17.2835 10.4178 17.436 10.8098 17.7046 11.2019C17.9732 11.5866 18.2853 11.8697 18.641 12.0367V12.044ZM18.3652 8.99496C18.416 8.92963 18.4813 8.87155 18.5539 8.82073C18.7209 8.70458 18.9024 8.67554 19.0911 8.72636C19.2799 8.77718 19.4686 8.89333 19.6501 9.0603C19.8316 9.22727 20.0131 9.43779 20.1801 9.67736C20.2817 9.82255 20.3688 9.975 20.4559 10.142C20.543 10.3089 20.6011 10.4614 20.6374 10.6138C20.6737 10.7663 20.6664 10.9042 20.6229 11.0349C20.5576 11.1147 20.485 11.1801 20.4051 11.2382C20.2309 11.3616 20.0421 11.3979 19.8534 11.3543C19.6646 11.3108 19.4686 11.2091 19.2871 11.0422C19.1057 10.8824 18.9314 10.6792 18.7717 10.4469C18.6193 10.2218 18.4959 9.99678 18.4015 9.77173C18.3071 9.54669 18.2635 9.35068 18.2708 9.17645C18.2926 9.11112 18.3289 9.05304 18.3797 8.9877L18.3652 8.99496Z" fill="#F8F7E5"/>
<path d="M20.5658 7.21691H21.1031L23.6511 9.85938C23.7673 9.83034 23.898 9.78678 24.0432 9.71419C24.1884 9.64159 24.3263 9.57626 24.4642 9.48914C24.6021 9.40203 24.711 9.32217 24.7982 9.23506L24.7401 7.71782L25.8363 8.82126C25.9452 8.79222 26.0686 8.74867 26.2138 8.68333C26.359 8.618 26.4896 8.5454 26.6276 8.46555C26.7655 8.38569 26.8744 8.29858 26.9688 8.21146L26.5187 4.56718C26.5187 4.56718 26.5767 4.50184 26.6058 4.47281C26.6856 4.37843 26.7582 4.2768 26.8308 4.18242L26.6421 3.84122L26.221 4.03723L25.2265 4.50911L24.7473 4.73415L24.9361 5.14794H25.408L26.1194 7.60166L26.0468 7.63796L25.5531 6.94105L23.9343 5.16246L22.8381 5.81582L23.956 6.94105L24.0795 8.57444L23.9996 8.61074L23.4697 7.91382L22.2428 6.55629C22.2428 6.55629 22.2573 6.54177 22.2646 6.52725C22.3444 6.43288 22.4243 6.33125 22.4969 6.23687L22.2936 5.89567L21.8363 6.11346L21.2773 6.3748L20.3771 6.80311L20.5658 7.21691Z" fill="#F8F7E5"/>
<path d="M28.291 4.03492L29.0532 6.86614C29.0097 6.89518 28.9734 6.90969 28.9298 6.93873C28.7628 7.05488 28.6249 7.17103 28.5088 7.29445L28.6104 7.57031L29.467 7.33801L30.4253 7.07666L30.8971 6.95325L30.8173 6.5322C30.6576 6.48138 30.4906 6.45234 30.3019 6.44508C30.2873 6.44508 30.2728 6.44508 30.2511 6.44508L29.6267 4.12929C29.7284 4.0204 29.83 3.91876 29.9389 3.83891C30.0696 3.73728 30.193 3.66468 30.3091 3.63564C30.4834 3.58483 30.6358 3.60661 30.7737 3.7155C30.9117 3.82439 31.0206 4.0204 31.0932 4.30352L31.6086 6.21278C31.4416 6.32893 31.3037 6.44508 31.1875 6.56849L31.2892 6.84436L31.8844 6.68465L32.3854 6.54672L33.5469 6.23456L33.467 5.8135C33.3073 5.76269 33.1186 5.74091 32.9008 5.73365C32.8645 5.73365 32.8354 5.73365 32.7991 5.73365L32.2982 3.88247C32.2402 3.65742 32.1821 3.4832 32.1385 3.34527C32.095 3.21459 32.0514 3.11296 32.0151 3.03311C31.9788 2.96051 31.9425 2.90243 31.899 2.86613C31.7828 2.75724 31.6594 2.67739 31.5142 2.62657C31.369 2.57575 31.2311 2.54672 31.0859 2.5322C30.9407 2.51768 30.8173 2.5322 30.7011 2.55397C30.5487 2.64109 30.3745 2.77176 30.1857 2.94599C29.997 3.12022 29.801 3.32348 29.605 3.56305C29.5687 3.60661 29.5324 3.66469 29.4961 3.70824L29.3944 3.31623L28.8645 3.01858C28.6177 3.09844 28.3636 3.20007 28.1167 3.31623C27.8699 3.43964 27.6449 3.57031 27.4416 3.7155L27.6086 4.10025L28.2619 4.00588L28.291 4.03492Z" fill="#F8F7E5"/>
<path d="M37.3632 6.01832C37.4794 6.08365 37.5738 6.12721 37.6681 6.15625C37.7915 6.06188 37.9004 5.92394 38.0093 5.76424C38.1182 5.59727 38.1908 5.43756 38.2344 5.29237C38.1763 5.21977 38.0964 5.14718 38.0093 5.06732C37.915 4.98747 37.8133 4.92214 37.7044 4.84954C37.5955 4.77695 37.4866 4.73339 37.385 4.71161C37.2689 4.79146 37.16 4.91488 37.0511 5.08185C36.9422 5.24881 36.8551 5.41578 36.7897 5.58275C36.8551 5.6626 36.9422 5.7352 37.0438 5.8078C37.1454 5.88039 37.2543 5.95298 37.3705 6.01832H37.3632Z" fill="#F8F7E5"/>
<path d="M42.4158 5.92536C42.6699 5.9907 42.8949 6.02699 43.1055 6.04877C43.4902 6.08507 43.8532 6.04877 44.1944 5.94714C44.5283 5.84551 44.8115 5.67128 45.0292 5.42445C45.247 5.17763 45.3777 4.87273 45.414 4.5025C45.443 4.15404 45.3922 3.86366 45.2543 3.62409C45.1164 3.38453 44.9276 3.174 44.6953 2.99977C44.463 2.82555 44.2162 2.66583 43.9621 2.52064C43.7298 2.38271 43.5193 2.25204 43.3232 2.13589C43.1272 2.01974 42.9748 1.88907 42.8659 1.76566C42.7497 1.63498 42.7062 1.48979 42.7207 1.31556C42.7352 1.19215 42.7788 1.06148 42.8586 0.938066C42.9385 0.814653 43.0474 0.72028 43.1853 0.654944C43.5193 0.676723 43.8459 0.749322 44.1508 0.879993C44.2307 0.909031 44.296 0.967108 44.3686 1.01067L44.5283 2.00522L45.2252 2.07056C45.2833 1.89633 45.3269 1.71484 45.3632 1.52609C45.3995 1.33734 45.4285 1.14859 45.4575 0.974365C45.4793 0.792877 45.5011 0.633171 45.5156 0.495239C45.3777 0.422644 45.2107 0.357304 45.0292 0.291968C44.8478 0.226632 44.6517 0.175819 44.4412 0.125002C44.2307 0.0741854 44.0274 0.0451479 43.8242 0.0233693C43.4104 -0.0129285 43.0256 0.0233703 42.6699 0.132263C42.3142 0.241156 42.0311 0.41538 41.8133 0.654944C41.5955 0.894509 41.4648 1.18489 41.4358 1.53335C41.4067 1.86003 41.4648 2.14315 41.61 2.38272C41.7552 2.61502 41.9439 2.81828 42.1762 2.99251C42.4085 3.16674 42.6481 3.32645 42.8877 3.47164C43.1272 3.60958 43.3378 3.74025 43.5193 3.8564C43.7007 3.97255 43.8459 4.10322 43.9403 4.24115C44.0419 4.37908 44.0855 4.53879 44.071 4.71302C44.0565 4.84369 44.0129 4.96711 43.9258 5.09778C43.8387 5.22845 43.708 5.33008 43.5338 5.40268C43.3015 5.3809 43.0619 5.33734 42.8151 5.25749C42.6409 5.20667 42.4739 5.12682 42.3142 5.03244L42.002 3.7838L41.3777 3.72573C41.3269 3.88544 41.2833 4.06692 41.2398 4.27019C41.1962 4.47346 41.1599 4.67672 41.1381 4.86547C41.1164 5.05422 41.1018 5.20667 41.0946 5.32282C41.2615 5.46075 41.4648 5.5769 41.6971 5.6858C41.9294 5.78743 42.169 5.86729 42.4231 5.93262L42.4158 5.92536Z" fill="#F8F7E5"/>
<path d="M46.517 5.94471C46.684 6.18427 46.9018 6.38028 47.1704 6.53273C47.439 6.68518 47.7366 6.77956 48.0778 6.80859L49.4281 6.45288L49.3482 5.98827C49.1667 6.02457 48.9925 6.04634 48.8328 6.0536C48.6731 6.0536 48.5206 6.04634 48.3755 6.0173C48.1069 5.95923 47.8963 5.84308 47.7366 5.66885C47.5769 5.49462 47.4753 5.2841 47.4317 5.03001C47.3882 4.77593 47.3954 4.50733 47.4608 4.21694C47.5116 3.99916 47.5914 3.78863 47.7148 3.57085C47.8382 3.35306 47.998 3.17157 48.2012 3.02638C48.3827 3.14254 48.5497 3.28772 48.6876 3.47647C48.8328 3.66522 48.9562 3.88301 49.0579 4.12983L50.125 3.70152C50.0814 3.46921 49.9943 3.27321 49.8709 3.09898C49.7402 2.92475 49.5878 2.78682 49.399 2.67067C49.2103 2.55452 49.007 2.47466 48.782 2.42384C48.39 2.33673 48.0197 2.35125 47.6568 2.46014C47.2938 2.56904 46.9889 2.7723 46.7348 3.06268C46.4807 3.35306 46.2992 3.71604 46.2049 4.15887C46.1323 4.50007 46.1177 4.81949 46.1758 5.12439C46.2339 5.42929 46.3428 5.69789 46.517 5.94471Z" fill="#F8F7E5"/>
<path d="M50.2481 6.71341C50.0448 6.71341 49.8633 6.72792 49.6963 6.76422L49.6237 7.0546L50.2045 7.25787L51.0974 7.57003L51.3515 7.65714L51.4023 7.67892L52.2517 7.97656L52.4259 7.58455C52.3533 7.50469 52.2662 7.42484 52.1573 7.33773C52.0484 7.25061 51.9395 7.17076 51.8234 7.09816C51.758 7.06186 51.7072 7.02556 51.6491 6.99653L52.2444 5.29779C52.2444 5.29779 52.2589 5.29054 52.2662 5.28328C52.4622 5.15986 52.6437 5.06549 52.8179 4.99289C52.9922 4.9203 53.1664 4.86948 53.3334 4.83318L53.1519 5.82048L53.8125 6.05279C53.8923 5.95115 53.9722 5.835 54.0593 5.70433C54.1464 5.57366 54.2263 5.43572 54.2989 5.29053C54.3715 5.14534 54.4368 5.00742 54.4949 4.86948C54.553 4.73155 54.6038 4.6154 54.6328 4.50651C54.5384 4.35406 54.4005 4.2379 54.2263 4.14353C54.052 4.05642 53.8488 4.01285 53.631 4.02011L52.4913 4.6154L52.709 3.99834L52.4404 3.46113C52.1936 3.38854 51.9323 3.33046 51.6564 3.28691C51.3878 3.24335 51.1265 3.22883 50.8796 3.23609L50.7998 3.64988L51.3878 3.94026L50.415 6.70614C50.3642 6.70614 50.3279 6.70614 50.2698 6.70614L50.2481 6.71341Z" fill="#F8F7E5"/>
<path d="M54.0365 7.72392C54.0656 8.1232 54.1817 8.47165 54.3922 8.77655C54.6028 9.08145 54.8786 9.32102 55.2126 9.48799C55.5465 9.65496 55.8877 9.72755 56.2434 9.71303C56.5991 9.69851 56.9331 9.58236 57.2525 9.37183C57.5719 9.16131 57.8332 8.83463 58.051 8.40632C58.2688 7.97074 58.3705 7.55695 58.3487 7.1722C58.3269 6.78744 58.2107 6.44624 58.0075 6.1486C57.8042 5.85096 57.5356 5.61866 57.2017 5.45169C56.8677 5.28472 56.5193 5.20486 56.1563 5.21938C55.7933 5.22664 55.4449 5.33554 55.1254 5.54607C54.7988 5.75659 54.5302 6.06875 54.3196 6.49706C54.1091 6.91811 54.0147 7.32465 54.0438 7.72392H54.0365ZM55.2126 7.80378C55.2634 7.56421 55.3505 7.31739 55.4812 7.0633C55.6046 6.81648 55.7425 6.59869 55.8877 6.40995C56.0401 6.2212 56.1926 6.08327 56.345 6.00341C56.4104 5.98889 56.483 5.98889 56.5701 6.00341C56.6499 6.01793 56.7371 6.04697 56.8097 6.08327C56.9911 6.17038 57.1073 6.31558 57.1509 6.50432C57.1944 6.69307 57.1871 6.91086 57.1291 7.15768C57.071 7.40451 56.9766 7.65859 56.846 7.91993C56.7661 8.07238 56.679 8.23209 56.5774 8.38454C56.4757 8.53699 56.3668 8.66766 56.2507 8.76929C56.1345 8.87093 56.0111 8.93626 55.8732 8.95804C55.7715 8.94352 55.6772 8.90723 55.5901 8.86367C55.394 8.7693 55.2706 8.6241 55.2198 8.43535C55.1617 8.24661 55.1617 8.02882 55.2198 7.78926L55.2126 7.80378Z" fill="#F8F7E5"/>
<path d="M58.1328 10.2423C58.082 10.2278 58.0312 10.2132 57.9731 10.1987C57.7771 10.1552 57.5956 10.1261 57.4214 10.1189L57.2834 10.3802L58.0312 10.8593L58.3942 11.0916L59.396 11.7305L59.6573 11.3893C59.5847 11.2441 59.4831 11.0844 59.3452 10.9319C59.3161 10.8956 59.2871 10.8738 59.2653 10.8448L62.1328 6.33664L61.9731 5.7704C61.7481 5.63973 61.5085 5.52357 61.2472 5.42194C60.9931 5.32031 60.739 5.24771 60.4994 5.18964L60.3252 5.58165L60.8406 5.99544L58.1401 10.235L58.1328 10.2423Z" fill="#F8F7E5"/>
<path d="M60.6186 11.9068C60.5678 11.8923 60.517 11.8705 60.4662 11.856C60.2702 11.7907 60.096 11.7544 59.9217 11.7326L59.762 11.9867L60.2702 12.3714L60.8074 12.7852L61.7511 13.5039L62.0415 13.1845C61.9834 13.032 61.8963 12.8651 61.7729 12.6981C61.7439 12.6618 61.7221 12.64 61.7003 12.6037L64.9453 8.36416L64.8364 7.79066C64.6186 7.63821 64.3936 7.50754 64.1468 7.38412C63.8999 7.26071 63.6604 7.16634 63.4208 7.09374L63.2103 7.47124L63.6894 7.92133L60.6332 11.9213L60.6186 11.9068Z" fill="#F8F7E5"/>
<path d="M64.5334 15.8201C64.5842 16.1685 64.7439 16.4952 65.0198 16.7856L66.2031 17.0397C66.145 17.1631 66.1015 17.2865 66.087 17.4172C66.0724 17.5624 66.0724 17.7003 66.0942 17.8237C66.116 17.9471 66.1668 18.0488 66.2321 18.1214L67.3574 18.5352L67.5969 18.2157C67.5316 18.1649 67.4735 18.1141 67.4155 18.0705C67.3574 18.027 67.3138 17.9834 67.2703 17.9326C67.2267 17.8818 67.2049 17.831 67.2049 17.7802C67.2049 17.7221 67.2267 17.6785 67.2703 17.635L71.0234 14.2375V13.6495C70.8347 13.4607 70.6314 13.2865 70.4136 13.1195C70.1959 12.9526 69.9708 12.8146 69.753 12.7058L69.4772 13.0397L69.8619 13.5696L68.8456 14.4916C68.7585 14.3319 68.6641 14.1722 68.5262 14.027C68.2939 13.7656 68.0398 13.5769 67.7639 13.4535C67.488 13.3301 67.2049 13.2575 66.9145 13.2502C66.6242 13.243 66.341 13.2938 66.0652 13.3954C65.7893 13.497 65.5352 13.6568 65.3102 13.8673C65.0198 14.1286 64.8093 14.4335 64.6641 14.7747C64.5262 15.1159 64.4753 15.4644 64.5262 15.8201H64.5334ZM65.8764 15.2974C65.9781 15.1014 66.116 14.9272 66.2975 14.7602C66.5008 14.5787 66.7258 14.4335 66.9726 14.3319C67.2194 14.2303 67.459 14.1867 67.6913 14.2157C67.851 14.3609 67.9817 14.5279 68.0688 14.7094C68.1269 14.8328 68.1704 14.9562 68.1995 15.0796L66.4209 16.6912C66.4209 16.6912 66.4064 16.6912 66.3991 16.684C66.2031 16.5896 66.0579 16.4807 65.9563 16.3718C65.8184 16.2194 65.7458 16.0524 65.7385 15.8636C65.7312 15.6749 65.7748 15.4862 65.8764 15.2901V15.2974Z" fill="#F8F7E5"/>
<path d="M68.7971 17.7007C68.4123 17.9693 68.1292 18.2814 67.9622 18.6371C67.7953 18.9929 67.7227 19.3631 67.759 19.7333C67.7953 20.1036 67.9187 20.4448 68.1365 20.7569C68.347 21.0618 68.6083 21.2941 68.9277 21.4538C69.2472 21.6135 69.5956 21.6789 69.9731 21.6426C70.3506 21.6135 70.7426 21.4611 71.1419 21.1852C71.5412 20.9094 71.8316 20.5972 71.9985 20.2488C72.1655 19.9003 72.2381 19.5446 72.2018 19.1889C72.1655 18.8259 72.0421 18.4992 71.8316 18.187C71.621 17.8821 71.3524 17.6426 71.033 17.4756C70.7136 17.3086 70.3579 17.236 69.9731 17.2578C69.5884 17.2796 69.1964 17.4321 68.8043 17.7007H68.7971ZM70.8152 18.2596C70.8806 18.2814 70.9459 18.3177 71.0112 18.3685C71.0766 18.4193 71.1346 18.4847 71.1855 18.5573C71.3016 18.7242 71.3307 18.9057 71.2798 19.0945C71.229 19.2832 71.1129 19.472 70.9459 19.6535C70.7789 19.8422 70.5684 20.0164 70.3288 20.1834C70.1836 20.285 70.0312 20.3722 69.8642 20.4593C69.6973 20.5464 69.5448 20.6045 69.3924 20.6408C69.2399 20.6771 69.102 20.6698 68.9713 20.6262C68.8915 20.5609 68.8261 20.4883 68.768 20.4085C68.6446 20.2342 68.6083 20.0455 68.6519 19.8567C68.6954 19.668 68.7971 19.4792 68.964 19.2905C69.1238 19.109 69.327 18.9348 69.5593 18.7751C69.7844 18.6226 70.0094 18.4992 70.2345 18.4048C70.4595 18.3105 70.6555 18.2669 70.8297 18.2742L70.8152 18.2596Z" fill="#F8F7E5"/>
<path d="M70.1387 23.6433C70.1677 23.7595 70.2112 23.8902 70.2838 24.0353C70.3564 24.1805 70.4218 24.3185 70.5089 24.4564C70.596 24.5943 70.6759 24.7032 70.763 24.7903L72.2802 24.7323L71.1768 25.8284C71.2058 25.9373 71.2494 26.0608 71.3147 26.2059C71.38 26.3439 71.4526 26.4818 71.5325 26.6197C71.6123 26.7577 71.6995 26.8666 71.7938 26.9609L75.4381 26.5108C75.4381 26.5108 75.5034 26.5689 75.5325 26.598C75.6269 26.6778 75.7212 26.7504 75.8229 26.823L76.1641 26.6343L76.0697 26.4383L75.9608 26.2132L75.7575 25.7922L75.6777 25.6252L75.2639 24.754L74.8501 24.9428V25.4147L72.3964 26.1261L72.3601 26.0535L73.057 25.5598L74.8356 23.941L74.1822 22.8448L73.0642 23.9627L71.4308 24.0862L71.3946 24.0063L72.0842 23.4764L73.4417 22.2495C73.4417 22.2495 73.4563 22.264 73.4708 22.2713C73.5652 22.3511 73.6668 22.431 73.7612 22.5036L74.1024 22.3003L73.8846 21.843V21.8285L73.2022 20.3911L72.7884 20.5798V21.117L70.1459 23.6651L70.1387 23.6433Z" fill="#F8F7E5"/>
<path d="M75.9639 28.2832L73.1326 29.0454C73.1036 29.0019 73.0891 28.9656 73.06 28.922C72.9439 28.755 72.8277 28.6171 72.7043 28.5009L72.4285 28.6026L72.5882 29.1906L72.9221 30.4175L73.0455 30.8893L73.4666 30.8095C73.5174 30.6498 73.5464 30.4828 73.561 30.2941C73.561 30.2795 73.561 30.265 73.561 30.2432L75.8767 29.6189C75.9856 29.7206 76.0873 29.8222 76.1671 29.9311C76.2688 30.0617 76.3414 30.1852 76.3704 30.3013C76.4212 30.4755 76.3922 30.628 76.2905 30.7659C76.1889 30.9039 75.9856 31.0127 75.7025 31.0853L73.7933 31.6008C73.6771 31.4338 73.561 31.2959 73.4375 31.1797L73.1617 31.2813L73.394 32.138L73.4593 32.3775L73.7715 33.5391L74.1925 33.4592C74.2433 33.2995 74.2651 33.118 74.2724 32.893C74.2724 32.8567 74.2724 32.8276 74.2724 32.7913L76.1236 32.2904C76.3486 32.2323 76.5228 32.1743 76.6608 32.1307C76.7987 32.0872 76.8931 32.0436 76.9729 32.0146C77.0455 31.9783 77.1036 31.942 77.1399 31.8984C77.2488 31.7823 77.3286 31.6588 77.3795 31.5137C77.4303 31.3685 77.4593 31.2305 77.4738 31.0853C77.4811 30.9474 77.4738 30.8167 77.4521 30.7006C77.3649 30.5481 77.2343 30.3739 77.06 30.1852C76.8858 29.9964 76.6826 29.8004 76.443 29.6044C76.3994 29.5681 76.3414 29.5318 76.2978 29.4955L76.6898 29.3939L76.9875 28.8639C76.9076 28.6171 76.806 28.363 76.6898 28.1162C76.5664 27.8694 76.4357 27.6443 76.2905 27.4411L75.9058 27.608L76.0002 28.2614L75.9639 28.2832Z" fill="#F8F7E5"/>
<path d="M74.2442 38.0171C74.4112 38.126 74.5709 38.1986 74.7161 38.2422C74.7887 38.1841 74.8613 38.1115 74.9412 38.0171C75.021 37.9228 75.0863 37.8211 75.1589 37.7122C75.2243 37.6033 75.2751 37.4945 75.2969 37.3928C75.217 37.2767 75.0936 37.1678 74.9266 37.0589C74.7597 36.95 74.5927 36.8629 74.4257 36.7903C74.3531 36.8556 74.2733 36.9427 74.2007 37.0444C74.1281 37.146 74.0555 37.2549 73.9902 37.371C73.9248 37.4872 73.8813 37.5888 73.8522 37.6759C73.9466 37.7994 74.0773 37.9082 74.2442 38.0171Z" fill="#F8F7E5"/>
<path d="M77.0251 42.208C76.8508 42.4404 76.6911 42.6799 76.5459 42.9195C76.408 43.159 76.2773 43.3696 76.1612 43.5511C76.045 43.7325 75.9143 43.8777 75.7764 43.9721C75.6385 44.0737 75.4788 44.1173 75.3045 44.1028C75.1739 44.0883 75.0505 44.0447 74.9198 43.9576C74.7891 43.8705 74.6875 43.7398 74.6149 43.5656C74.6367 43.3333 74.6802 43.0937 74.7601 42.8469C74.8109 42.6727 74.8908 42.5057 74.9851 42.346L76.2338 42.0338L76.2918 41.4095C76.1321 41.3587 75.9506 41.3151 75.7474 41.2716C75.5441 41.228 75.3408 41.1917 75.1521 41.1699C74.9634 41.1482 74.8109 41.1336 74.6947 41.1264C74.5568 41.2933 74.4334 41.4966 74.3318 41.7289C74.2301 41.9612 74.143 42.2008 74.0849 42.4549C74.0196 42.709 73.9833 42.934 73.9615 43.1445C73.9252 43.5293 73.9615 43.8923 74.0632 44.2262C74.1648 44.5601 74.339 44.8433 74.5786 45.0683C74.8182 45.2933 75.1303 45.4168 75.5006 45.4531C75.849 45.4821 76.1394 45.4313 76.379 45.2933C76.6185 45.1554 76.829 44.9667 77.0033 44.7344C77.1775 44.5021 77.3372 44.2552 77.4824 44.0012C77.6203 43.7688 77.751 43.5583 77.8672 43.3623C77.9833 43.1663 78.114 43.0139 78.2447 42.905C78.3753 42.7961 78.5205 42.7453 78.6947 42.7598C78.8182 42.7743 78.9488 42.8178 79.0722 42.8977C79.1957 42.9776 79.29 43.0865 79.3554 43.2244C79.3336 43.5583 79.261 43.885 79.1303 44.1899C79.094 44.2698 79.0432 44.3351 78.9996 44.4077L78.0051 44.5674L77.9398 45.2643C78.114 45.3224 78.2955 45.3659 78.4842 45.4022C78.673 45.4385 78.8617 45.4748 79.0432 45.4966C79.2247 45.5184 79.3844 45.5402 79.5223 45.5547C79.5949 45.4168 79.6603 45.257 79.7256 45.0683C79.7909 44.8868 79.8418 44.6908 79.8926 44.4803C79.9434 44.2698 79.9724 44.0665 79.9942 43.8632C80.0305 43.4494 79.9942 43.0647 79.8853 42.709C79.7764 42.3532 79.6022 42.0701 79.3626 41.8523C79.1231 41.6345 78.8327 41.5039 78.4842 41.4748C78.1575 41.4458 77.8744 41.5039 77.6349 41.6491C77.3953 41.7943 77.1993 41.983 77.0251 42.2153V42.208Z" fill="#F8F7E5"/>
<path d="M76.9368 46.7387C76.6465 46.4846 76.2835 46.3031 75.8406 46.2088C75.4994 46.1362 75.18 46.1216 74.8751 46.1797C74.5702 46.2378 74.3016 46.3467 74.0548 46.5209C73.808 46.6952 73.6192 46.9057 73.4668 47.1743C73.3143 47.4429 73.22 47.7405 73.1909 48.0817L73.5466 49.432L74.0112 49.3521C73.9749 49.1706 73.9532 48.9964 73.9459 48.8367C73.9459 48.677 73.9532 48.5246 73.9822 48.3794C74.0403 48.1108 74.1564 47.9002 74.3307 47.7405C74.5049 47.5808 74.7154 47.4792 74.9622 47.4356C75.2163 47.3921 75.4849 47.3993 75.7753 47.4647C75.9931 47.5155 76.2036 47.5953 76.4214 47.7187C76.6319 47.8349 76.8207 48.0019 76.9659 48.2051C76.857 48.3866 76.7045 48.5536 76.5158 48.6915C76.327 48.8367 76.1092 48.9601 75.8624 49.0618L76.2907 50.1289C76.523 50.0853 76.719 49.9982 76.8933 49.8676C77.0675 49.7369 77.2054 49.5844 77.3216 49.3957C77.4377 49.2069 77.5176 49.0037 77.5684 48.7786C77.6555 48.3866 77.641 48.0164 77.5321 47.6534C77.4232 47.2904 77.22 46.9855 76.9296 46.7314L76.9368 46.7387Z" fill="#F8F7E5"/>
<path d="M76.0446 51.3694L73.2787 50.3966C73.2787 50.3458 73.2787 50.3095 73.2787 50.2514C73.2787 50.0481 73.2642 49.8667 73.2279 49.6997L72.9375 49.6271L72.7343 50.2079L72.6471 50.4619L72.4221 51.1008L72.0156 52.2478L72.4076 52.422C72.4874 52.3494 72.5673 52.2623 72.6544 52.1534C72.7415 52.0445 72.8214 51.9356 72.894 51.8195C72.9303 51.7541 72.9666 51.7033 72.9956 51.6452L74.6943 52.2405C74.6943 52.2405 74.7016 52.255 74.7088 52.2623C74.8323 52.4583 74.9266 52.6398 74.9992 52.814C75.0718 52.9883 75.1226 53.1625 75.1589 53.3295L74.1716 53.148L73.9393 53.8086C74.041 53.8884 74.1571 53.9683 74.2878 54.0554C74.4185 54.1425 74.5564 54.2224 74.7016 54.295C74.8468 54.3676 74.9847 54.4329 75.1226 54.491C75.2606 54.5491 75.3767 54.5999 75.4856 54.6289C75.6381 54.5345 75.7542 54.3966 75.8486 54.2224C75.9357 54.0481 75.9793 53.8449 75.972 53.6271L75.3767 52.4873L75.9938 52.7051L76.531 52.4365C76.6036 52.1897 76.6617 51.9284 76.7052 51.6525C76.7488 51.3839 76.7633 51.1226 76.756 50.8757L76.3422 50.7959L76.0519 51.3839L76.0446 51.3694Z" fill="#F8F7E5"/>
<path d="M71.5926 58.0471C72.0282 58.2649 72.442 58.3665 72.8268 58.3448C73.2115 58.323 73.5527 58.2068 73.8504 58.0036C74.148 57.8003 74.3803 57.5317 74.5473 57.1978C74.7142 56.8638 74.7941 56.5154 74.7796 56.1524C74.7723 55.7894 74.6634 55.441 74.4529 55.1215C74.2424 54.8021 73.9302 54.5263 73.5019 54.3157C73.0808 54.1052 72.6743 54.0108 72.275 54.0399C71.8758 54.0689 71.5273 54.1851 71.2224 54.3956C70.9175 54.6061 70.6779 54.882 70.511 55.2159C70.344 55.5499 70.2714 55.891 70.2859 56.2468C70.3004 56.6025 70.4166 56.9364 70.6271 57.2558C70.8376 57.5753 71.1571 57.8366 71.5926 58.0544V58.0471ZM71.1208 55.5861C71.2151 55.3901 71.3603 55.2667 71.5491 55.2159C71.7378 55.1578 71.9556 55.1578 72.1952 55.2159C72.4347 55.274 72.6816 55.3538 72.9357 55.4845C73.1825 55.6079 73.4003 55.7459 73.589 55.891C73.7778 56.0435 73.9157 56.1959 73.9955 56.3484C74.0101 56.4137 74.0101 56.4863 73.9955 56.5734C73.981 56.6533 73.952 56.7404 73.9157 56.813C73.8286 56.9945 73.6834 57.1106 73.4946 57.1542C73.3059 57.1978 73.0881 57.1905 72.8413 57.1324C72.5945 57.0744 72.3404 56.98 72.079 56.8493C71.9266 56.7695 71.7669 56.6823 71.6144 56.5807C71.462 56.4791 71.3313 56.3702 71.2297 56.254C71.128 56.1379 71.0627 56.0145 71.0409 55.8765C71.0554 55.7749 71.0917 55.6805 71.1353 55.5934L71.1208 55.5861Z" fill="#F8F7E5"/>
<path d="M73.9922 60.8568L69.7526 58.149C69.7671 58.0982 69.7816 58.0474 69.7962 57.9893C69.8397 57.7933 69.8688 57.6118 69.876 57.4376L69.6147 57.2996L69.2735 57.8368L68.5911 58.9112L68.2717 59.4121L68.6129 59.6735C68.7581 59.6009 68.9178 59.4993 69.0775 59.3613C69.1138 59.3323 69.1355 59.3033 69.1646 59.2815L73.6655 62.1562L74.2317 61.9965C74.3624 61.7715 74.4786 61.5319 74.5802 61.2706C74.6818 61.0165 74.7544 60.7624 74.8125 60.5229L74.4205 60.3414L74.0067 60.8568H73.9922Z" fill="#F8F7E5"/>
<path d="M72.0937 63.6671L68.0937 60.6108C68.1083 60.56 68.13 60.5092 68.1518 60.4584C68.2171 60.2624 68.2534 60.0881 68.2752 59.9139L68.0211 59.7542L67.6364 60.2624L66.8669 61.2714L66.5039 61.7433L66.8233 62.0337C66.9758 61.9756 67.1427 61.8885 67.3097 61.7651C67.346 61.736 67.3678 61.7143 67.4041 61.6925L71.6436 64.9375L72.2171 64.8286C72.3696 64.6108 72.5003 64.3858 72.6237 64.139C72.7471 63.8921 72.8415 63.6526 72.9141 63.413L72.5366 63.2025L72.0865 63.6816L72.0937 63.6671Z" fill="#F8F7E5"/>
<path d="M66.4028 69.8731L65.4809 68.8567C65.6406 68.7696 65.8003 68.6753 65.9455 68.5373C66.2068 68.305 66.3956 68.0509 66.5263 67.7751C66.6497 67.4992 66.7223 67.2161 66.7295 66.9257C66.7368 66.6353 66.686 66.3522 66.5843 66.0763C66.4754 65.8005 66.323 65.5464 66.1197 65.3214C65.8584 65.031 65.5607 64.8204 65.2123 64.6753C64.8711 64.5373 64.5226 64.4865 64.1742 64.5373C63.8257 64.5881 63.499 64.7479 63.2087 65.0165L62.9546 66.207C62.8312 66.1489 62.7077 66.1054 62.5771 66.0909C62.4319 66.0763 62.294 66.0763 62.1705 66.0981C62.0471 66.1199 61.9455 66.1707 61.8729 66.2361L61.4591 67.3613L61.7785 67.6008C61.8293 67.5355 61.8802 67.4774 61.9237 67.4194C61.9673 67.3613 62.0108 67.3177 62.0617 67.2742C62.1125 67.2306 62.1633 67.2088 62.2141 67.2088C62.2722 67.2088 62.3157 67.2306 62.352 67.2742L65.7495 71.0273H66.3375C66.5263 70.8386 66.7005 70.6353 66.8675 70.4175C67.0344 70.1998 67.1724 69.9747 67.2812 69.7569L66.9473 69.4811L66.4174 69.8658L66.4028 69.8731ZM63.6079 65.9675C63.7604 65.8295 63.9273 65.7569 64.1161 65.7497C64.3048 65.7424 64.4936 65.786 64.6896 65.8876C64.8856 65.9892 65.0598 66.1272 65.2268 66.3087C65.4083 66.5119 65.5535 66.737 65.6551 66.9838C65.7567 67.2306 65.8003 67.4702 65.7713 67.7025C65.6261 67.8622 65.4591 67.9929 65.2776 68.08C65.1542 68.1381 65.0308 68.1816 64.9074 68.2106L63.2958 66.4248C63.2958 66.4248 63.2958 66.4103 63.303 66.403C63.3974 66.207 63.5063 66.0618 63.6152 65.9602L63.6079 65.9675Z" fill="#F8F7E5"/>
<path d="M61.3435 67.9695C60.9878 67.8025 60.6175 67.7299 60.2473 67.7662C59.8771 67.8025 59.5359 67.9259 59.2237 68.1365C58.9188 68.347 58.6865 68.6083 58.5268 68.9277C58.3671 69.2472 58.3017 69.5956 58.338 69.9731C58.3671 70.3506 58.5195 70.7426 58.7954 71.1419C59.0713 71.5412 59.3834 71.8316 59.7319 71.9985C60.0803 72.1655 60.436 72.2381 60.7918 72.2018C61.1547 72.1655 61.4814 72.0421 61.7936 71.8316C62.0985 71.621 62.338 71.3524 62.505 71.033C62.672 70.7063 62.7446 70.3579 62.7228 69.9731C62.701 69.5884 62.5486 69.1964 62.28 68.8043C62.0114 68.4196 61.6992 68.1365 61.3435 67.9695ZM61.6121 71.0185C61.5613 71.0838 61.4959 71.1419 61.4233 71.1927C61.2564 71.3089 61.0749 71.3379 60.8861 71.2871C60.6974 71.2363 60.5086 71.1201 60.3271 70.9532C60.1457 70.7862 59.9642 70.5757 59.7972 70.3361C59.6956 70.1909 59.6085 70.0385 59.5213 69.8715C59.4342 69.7045 59.3762 69.5521 59.3399 69.3996C59.3036 69.2472 59.3108 69.1092 59.3544 68.9786C59.4197 68.8987 59.4923 68.8334 59.5722 68.7753C59.7464 68.6519 59.9351 68.6156 60.1239 68.6591C60.3126 68.7027 60.5014 68.8043 60.6901 68.9713C60.8789 69.1383 61.0458 69.3343 61.2056 69.5666C61.358 69.7916 61.4814 70.0167 61.5758 70.2417C61.6702 70.4668 61.7137 70.6628 61.7065 70.837C61.6847 70.9023 61.6484 70.9677 61.5976 71.033L61.6121 71.0185Z" fill="#F8F7E5"/>
<path d="M59.6016 73.2139L59.4128 72.8001H58.8756L56.3348 70.1576C56.2186 70.1867 56.088 70.2302 55.9428 70.2956C55.7976 70.3609 55.6596 70.4335 55.5217 70.5206C55.3838 70.6005 55.2749 70.6876 55.1878 70.7747L55.2458 72.2919L54.1497 71.1885C54.0408 71.2175 53.9174 71.2611 53.7722 71.3264C53.627 71.3918 53.4963 71.4643 53.3584 71.5442C53.2204 71.6241 53.1115 71.7112 53.0172 71.7983L53.46 75.4498C53.46 75.4498 53.4019 75.5152 53.3729 75.5442C53.293 75.6386 53.2204 75.733 53.1478 75.8346L53.3366 76.1758L54.3529 75.6967L54.7449 75.5079L55.2241 75.2829L55.0353 74.8691H54.5634L53.8593 72.4153L53.9319 72.379L54.4255 73.076L56.0371 74.8545L57.1333 74.2012L56.0154 73.076L55.8919 71.4426L55.9718 71.4063L56.5017 72.1032L57.7286 73.4607C57.7286 73.4607 57.7141 73.4752 57.7068 73.4898C57.627 73.5841 57.5471 73.6858 57.4745 73.7801L57.6705 74.1213L58.1279 73.9035L58.2513 73.8455L59.587 73.2139H59.6016Z" fill="#F8F7E5"/>
<path d="M51.7037 75.9633L50.9414 73.1248C50.985 73.0958 51.014 73.0813 51.0648 73.0522C51.2318 72.9361 51.3697 72.8199 51.4859 72.6965L51.3842 72.4207L50.5276 72.653L49.671 72.8853L49.0975 73.0377L49.1773 73.4588C49.3371 73.5096 49.504 73.5386 49.6928 73.5531C49.7073 73.5531 49.7291 73.5531 49.7436 73.5531L50.3679 75.8689C50.2663 75.9778 50.1646 76.0795 50.0558 76.1593C49.9251 76.2609 49.8017 76.3335 49.6855 76.3626C49.5113 76.4134 49.3588 76.3844 49.2209 76.2827C49.083 76.1738 48.9741 75.9778 48.9015 75.6947L48.3861 73.7854C48.553 73.6693 48.691 73.5531 48.8071 73.4297L48.7055 73.1539L47.8489 73.3862L47.014 73.6112L46.4478 73.7637L46.5276 74.1847C46.6873 74.2355 46.8688 74.2573 47.0866 74.2646C47.1229 74.2646 47.1519 74.2646 47.1882 74.2646L47.6819 76.1158C47.74 76.3408 47.798 76.515 47.8416 76.653C47.8852 76.7836 47.9287 76.8853 47.9577 76.9651C47.994 77.0377 48.0303 77.0958 48.0739 77.1321C48.1901 77.241 48.3135 77.3208 48.4587 77.3717C48.6038 77.4225 48.7418 77.4515 48.887 77.466C49.0249 77.4733 49.1556 77.466 49.2717 77.4442C49.4314 77.3571 49.5984 77.2265 49.7871 77.0522C49.9759 76.878 50.1719 76.6747 50.3679 76.4352C50.4042 76.3916 50.4405 76.3335 50.4768 76.29L50.5784 76.682L51.1084 76.9796C51.3552 76.8998 51.6093 76.7982 51.8561 76.682C52.1029 76.5586 52.328 76.4279 52.5312 76.2827L52.3643 75.898L51.7109 75.9923L51.7037 75.9633Z" fill="#F8F7E5"/>
<path d="M42.614 73.9823C42.4978 73.917 42.3962 73.8735 42.3091 73.8444C42.1857 73.9388 42.0768 74.0695 41.9679 74.2364C41.859 74.4034 41.7864 74.5631 41.7429 74.7083C41.8009 74.7809 41.8808 74.8535 41.9679 74.9333C42.0623 75.0132 42.1639 75.0785 42.2728 75.1511C42.3817 75.2165 42.4906 75.2673 42.5922 75.2891C42.7084 75.2092 42.8173 75.0858 42.9262 74.9188C43.035 74.7519 43.1222 74.5849 43.1875 74.4179C43.1222 74.3453 43.035 74.2655 42.9334 74.1929C42.8318 74.1203 42.7156 74.0477 42.6067 73.9823H42.614Z" fill="#F8F7E5"/>
</g>
<defs>
<clipPath id="clip0_2391_2522">
<rect width="48.8889" height="48.8889" fill="white" transform="matrix(-1 0 0 -1 64.4453 64.4453)"/>
</clipPath>
<clipPath id="clip1_2391_2522">
<rect width="80" height="80" fill="white" transform="matrix(-1 0 0 -1 80 80)"/>
</clipPath>
</defs>
</svg>
