<svg width="96" height="96" viewBox="0 0 96 96" fill="none" xmlns="http://www.w3.org/2000/svg">
<path d="M48.3483 83.8425C46.8483 83.8425 45.3558 83.4676 44.0808 82.7176L23.8758 71.4163L23.5758 71.2663C23.0508 70.9664 22.5258 70.6664 22.1508 70.2164C21.1758 69.0915 20.8008 67.6742 21.1008 66.2493L28.8108 17.017C29.1858 14.5497 31.1283 12.5249 33.6033 12.075H33.6783C33.9783 12.075 34.3533 12 34.6533 12C35.5533 12 36.4533 12.225 37.1958 12.5999C38.3208 13.1249 39.2883 14.0248 39.8883 15.1422L43.9308 22.7764C45.0558 21.5765 46.6233 20.8341 48.2733 20.8341C49.9233 20.8341 48.2733 20.8341 48.3483 20.8341C50.5158 20.8341 52.4658 22.1089 53.5158 23.9763L56.5083 29.6607L59.5758 26.5935C60.4008 25.7686 61.3758 25.2436 62.4183 25.0186C62.8683 24.9437 63.3183 24.8687 63.7683 24.8687C64.2183 24.8687 63.9183 24.8687 63.9933 24.8687C64.5183 24.8687 65.1183 25.0186 65.6433 25.1686C67.7358 25.8436 69.3108 27.6359 69.6858 29.8106L75.5958 66.5568C75.8958 68.2066 75.2208 69.849 73.8708 70.8989C73.7958 70.8989 73.6458 71.0488 73.5708 71.1238C73.4958 71.1238 73.4208 71.1988 73.2708 71.2738L52.4658 82.8751C51.1908 83.625 49.6983 84 48.1983 84L48.3483 83.85V83.8425Z" fill="white"/>
<path d="M25.5859 67.2902L33.2959 17.7503C33.3709 17.1504 33.8959 16.6255 34.4959 16.5505C35.0959 16.4755 35.6959 16.7754 35.9959 17.3004L44.0059 32.1938L47.2234 26.1345C47.4484 25.6845 47.9734 25.3845 48.4984 25.3845C49.0234 25.3845 49.5484 25.6845 49.7734 26.1345L71.4034 67.2227H25.6609L25.5859 67.2977V67.2902Z" fill="#FFA000"/>
<path d="M52.3084 47.9769L43.9984 32.1836L25.5859 67.2124L52.3084 47.902V47.9769Z" fill="#F57C00"/>
<path d="M71.3244 67.2949L65.4144 30.6238C65.3394 30.0988 64.9644 29.6489 64.4394 29.4989C63.9144 29.3489 63.3894 29.4989 63.0144 29.8738L25.6719 67.2949L46.3269 78.8962C47.6019 79.6461 49.1694 79.6461 50.5194 78.8962L71.3994 67.2949H71.3244Z" fill="#FFCA28"/>
<path d="M65.3331 30.6221C65.2581 30.0972 64.8831 29.6472 64.3581 29.4973C63.8331 29.3473 63.3081 29.4973 62.9331 29.8722L55.5231 37.2814L49.6881 26.2051C49.4631 25.7551 48.9381 25.4552 48.4131 25.4552C47.8881 25.4552 47.3631 25.7551 47.1381 26.2051L43.9206 32.2645L35.9181 17.3785C35.6181 16.8536 35.0181 16.5536 34.4181 16.6286C33.8181 16.7036 33.3681 17.2285 33.2181 17.8285L25.5156 67.3683L25.7406 67.5183L62.9406 30.3222C63.3156 29.9472 63.9156 29.7972 64.3656 29.9472C64.8156 30.0972 65.2656 30.5471 65.3406 31.0721L71.2506 67.4433L65.3406 30.6971V30.6221H65.3331ZM25.6656 67.2183L33.3006 18.1284C33.3756 17.5285 33.9006 17.0036 34.5006 16.9286C35.1006 16.8536 35.7006 17.1535 36.0006 17.6785L44.0106 32.5719L47.2281 26.5126C47.4531 26.0626 47.9781 25.7626 48.5031 25.7626C49.0281 25.7626 49.5531 26.0626 49.7781 26.5126L55.4631 37.3639L25.6656 67.2183Z" fill="white" fill-opacity="0.4"/>
<path opacity="0.2" d="M50.4334 78.5153C49.1584 79.2653 47.5909 79.2653 46.2409 78.5153L25.5859 66.9141V67.214L46.2409 78.8153C47.5159 79.5652 49.0834 79.5652 50.4334 78.8153L71.3134 67.214V66.9141L50.4334 78.5153Z" fill="#A52714"/>
<path d="M65.3284 30.6221C65.2534 30.0972 64.8784 29.6472 64.3534 29.4972C63.8284 29.3473 63.3034 29.4972 62.9284 29.8722L55.5184 37.2814L49.6834 26.2051C49.4584 25.7551 48.9334 25.4552 48.4084 25.4552C47.8834 25.4552 47.3584 25.7551 47.1334 26.2051L43.9909 32.2645L35.9884 17.3785C35.6884 16.8536 35.0884 16.5536 34.4884 16.6286C33.8884 16.7036 33.4384 17.2285 33.2884 17.8285L25.5859 67.2933L46.1659 78.8946C47.4409 79.6445 49.0084 79.6445 50.3584 78.8946L71.1634 67.2933L65.2534 30.6221H65.3284Z" fill="url(#paint0_linear_2286_1071)"/>
<defs>
<linearGradient id="paint0_linear_2286_1071" x1="22.5709" y1="30.2622" x2="79.0337" y2="53.6625" gradientUnits="userSpaceOnUse">
<stop stop-color="white" stop-opacity="0.1"/>
<stop offset="0.1" stop-color="white" stop-opacity="0"/>
<stop offset="0.6" stop-color="white" stop-opacity="0"/>
<stop offset="1" stop-color="white" stop-opacity="0"/>
</linearGradient>
</defs>
</svg>
