<svg width="41" height="40" viewBox="0 0 41 40" fill="none" xmlns="http://www.w3.org/2000/svg">
<g clip-path="url(#clip0_2286_935)">
<path d="M27.7783 38.2184C25.7217 38.2184 23.4348 37.2054 20.9826 35.2097C20.8217 35.0793 20.6609 34.9402 20.4913 34.7967C20.3261 34.9402 20.1609 35.0793 20.0043 35.2054C17.5478 37.2054 15.2609 38.2184 13.2043 38.2184C12.2043 38.2184 11.2913 37.9793 10.4826 37.5011C9.03913 36.6663 6.74348 34.3271 7.74348 28.1184C7.77826 27.9054 7.81739 27.6837 7.86087 27.4532C3.1 25.7663 0.5 23.2141 0.5 20.175C0.5 17.1358 3.16087 14.5576 7.86522 12.888C7.82174 12.6663 7.78261 12.4489 7.74783 12.2271C6.74783 6.01844 9.04348 3.67931 10.5 2.83584C11.2913 2.37931 12.1913 2.14453 13.1652 2.14453C15.8 2.14453 18.4522 3.82714 20.5 5.57931C21.1174 5.05323 21.7913 4.52714 22.5043 4.05757L22.6478 3.96627C24.2522 2.92279 26.0478 2.14453 27.8304 2.14453C28.8043 2.14453 29.7 2.37497 30.4913 2.83584C33.0913 4.32279 34.0217 7.93584 33.113 12.8663C37.4087 14.3924 40 16.6967 40.4217 19.375L40.4826 19.4358L40.5 20.1706C40.5 23.1793 37.8391 25.788 33.1348 27.4576C33.1783 27.6793 33.2174 27.8967 33.2522 28.1184C34.2304 34.3358 31.9391 36.6706 30.487 37.5097C29.6913 37.9793 28.7739 38.2184 27.7739 38.2184H27.7783Z" fill="white"/>
<path d="M20.4944 23.4154C22.29 23.4154 23.7465 21.9589 23.7465 20.1589C23.7465 18.3589 22.29 16.9023 20.4944 16.9023C18.6987 16.9023 17.2422 18.3589 17.2422 20.1589C17.2422 21.9589 18.6987 23.4154 20.4944 23.4154Z" fill="#61DAFB"/>
<path d="M38.7465 20.1586C38.7465 17.602 35.7465 15.3803 31.0813 14.0455C32.2552 9.32812 31.8422 5.61508 29.6204 4.34551C27.3987 3.05855 23.9857 4.56725 20.4944 7.93247C17.0031 4.54986 13.59 3.05855 11.3683 4.34551C9.52914 5.41073 8.84654 8.11073 9.46393 11.9499C9.57697 12.6325 9.73349 13.3325 9.9074 14.0629C5.24219 15.3977 2.24219 17.6194 2.24219 20.1759C2.24219 22.7325 5.24219 24.9412 9.9074 26.289C9.73349 27.002 9.57262 27.7194 9.46393 28.402C8.84654 32.2455 9.52914 34.9455 11.3683 36.0064C11.9074 36.3238 12.5248 36.4846 13.2074 36.4846C14.8248 36.4846 16.777 35.5933 18.9074 33.8629C19.4291 33.4325 19.9726 32.9412 20.4944 32.4325C21.0161 32.9412 21.5596 33.4325 22.0813 33.8629C24.2074 35.5933 26.1596 36.4846 27.7813 36.4846C28.4639 36.4846 29.0813 36.3238 29.6204 36.0064C31.4596 34.9412 32.1422 32.2412 31.5422 28.402C31.4291 27.7194 31.2726 27.0194 31.0987 26.289C35.7639 24.9542 38.7639 22.7325 38.7639 20.1759L38.7465 20.1586ZM28.8291 5.70638C30.2596 6.53247 30.577 9.54986 29.5422 13.6455C28.0509 13.2977 26.4161 13.0412 24.6857 12.8846C23.6857 11.4716 22.6378 10.1846 21.6074 9.05855C24.0204 6.72377 26.2596 5.45421 27.7987 5.45421C28.1944 5.45421 28.5465 5.53247 28.8465 5.70638H28.8291ZM25.59 23.0977C25.0204 24.0673 24.4335 25.0194 23.8291 25.9064C22.7639 25.9846 21.6552 26.0325 20.5118 26.0325C19.3683 26.0325 18.2596 25.9846 17.1944 25.9064C16.59 25.0151 15.99 24.0629 15.4335 23.0977C14.8639 22.1151 14.3552 21.1455 13.877 20.1586C14.3552 19.1759 14.8596 18.2064 15.4335 17.2194C16.0031 16.2194 16.6074 15.2803 17.1944 14.4107C18.2596 14.3325 19.3683 14.2846 20.5118 14.2846C21.6552 14.2846 22.7639 14.3325 23.8291 14.4107C24.4335 15.2846 25.0204 16.2194 25.59 17.2194C26.1465 18.189 26.6683 19.1716 27.1465 20.1586C26.6857 21.1281 26.177 22.0977 25.59 23.0977ZM27.9726 22.0151C28.4161 23.0803 28.7987 24.1107 29.1161 25.1281C28.0987 25.3499 27.0031 25.5586 25.8465 25.6977C26.2291 25.1107 26.5944 24.5064 26.9596 23.889C27.3248 23.2716 27.6596 22.6325 27.977 22.0151H27.9726ZM20.4944 30.1151C19.7813 29.3368 19.0639 28.4803 18.3683 27.5586C19.0683 27.589 19.7639 27.6064 20.4944 27.6064C21.2248 27.6064 21.9248 27.589 22.6204 27.5586C21.9204 28.4803 21.2074 29.3194 20.4944 30.1151ZM15.1465 25.702C13.99 25.5586 12.8944 25.3673 11.877 25.1325C12.1944 24.1151 12.577 23.0846 13.0204 22.0194C13.3378 22.6368 13.6726 23.2759 14.0378 23.8933C14.4031 24.5107 14.7683 25.1151 15.1509 25.702H15.1465ZM13.0204 18.2846C12.577 17.2194 12.1944 16.189 11.877 15.1716C12.8944 14.9499 13.99 14.7412 15.1465 14.602C14.7639 15.189 14.3987 15.7933 14.0335 16.4107C13.6683 17.0281 13.3335 17.6499 13.0161 18.2846H13.0204ZM20.4944 10.1846C21.1944 10.9455 21.9074 11.8064 22.6204 12.7412C21.9204 12.7107 21.2248 12.6933 20.4944 12.6933C19.7639 12.6933 19.0639 12.7107 18.3683 12.7412C19.0813 11.8064 19.7813 10.9455 20.4944 10.1846ZM26.9552 16.4281C26.59 15.8107 26.2248 15.2064 25.8422 14.6194C26.9987 14.7629 28.0944 14.9542 29.1118 15.189C28.8118 16.189 28.4291 17.2194 27.9683 18.302C27.6509 17.6846 27.3031 17.0455 26.9509 16.4281H26.9552ZM11.0204 11.6933C10.5291 8.59768 10.9422 6.41942 12.1639 5.72377C12.4639 5.54986 12.8161 5.4716 13.2118 5.4716C14.7509 5.4716 16.99 6.74116 19.4031 9.07595C18.3552 10.202 17.3248 11.489 16.3248 12.902C14.5944 13.0629 12.9596 13.3151 11.4683 13.6629C11.2944 12.9977 11.1509 12.3281 11.0552 11.7107L11.0248 11.6933H11.0204ZM3.82914 20.1586C3.82914 18.5064 6.27262 16.7281 10.3378 15.5716C10.7987 17.0499 11.4031 18.589 12.1161 20.1586C11.4031 21.7151 10.7987 23.2542 10.3378 24.7455C6.29001 23.5846 3.82914 21.8238 3.82914 20.1586ZM17.9074 32.5933C15.477 34.5629 13.3857 35.2933 12.1596 34.5933C10.9378 33.8933 10.5248 31.702 11.0161 28.6238C11.1118 27.989 11.2683 27.3368 11.4291 26.6716C12.9204 27.0194 14.5552 27.2759 16.2857 27.4325C17.2857 28.8281 18.3161 30.1325 19.3639 31.2759C18.8726 31.7542 18.3813 32.2107 17.89 32.6107L17.9074 32.5933ZM29.9726 28.6238C30.4639 31.7194 30.0509 33.8977 28.8291 34.5933C27.6074 35.2933 25.5118 34.5629 23.0813 32.5933C22.59 32.1977 22.0987 31.7368 21.6031 31.2586C22.6683 30.1151 23.6987 28.8281 24.6813 27.4325C26.4118 27.2716 28.0465 27.0194 29.5378 26.6716C29.7118 27.3368 29.8552 28.0064 29.9509 28.6238H29.9683H29.9726ZM30.6552 24.7325C30.1944 23.2542 29.59 21.7151 28.877 20.1455C29.6074 18.5586 30.1944 17.0194 30.6552 15.5586C34.7204 16.7194 37.1639 18.4803 37.1639 20.1455C37.1639 21.8107 34.7204 23.5759 30.6552 24.7325Z" fill="#61DAFB"/>
</g>
<defs>
<clipPath id="clip0_2286_935">
<rect width="40" height="40" fill="white" transform="translate(0.5)"/>
</clipPath>
</defs>
</svg>
