<svg width="96" height="96" viewBox="0 0 96 96" fill="none" xmlns="http://www.w3.org/2000/svg">
<path d="M48.1844 84C47.8094 84 47.3594 84 46.9844 83.85L24.3344 77.55C22.5344 77.025 21.1844 75.45 21.0344 73.65L16.0094 16.95C15.9344 15.675 16.3094 14.475 17.1344 13.5C17.9594 12.525 19.1594 12 20.4344 12H76.0094C77.2844 12 78.4844 12.525 79.3094 13.5C80.1344 14.475 80.5844 15.675 80.4344 16.95L75.4094 73.65C75.2594 75.525 73.9094 77.1 72.1094 77.55L49.3094 83.85C48.9344 83.925 48.4844 84 48.1094 84H48.1844Z" fill="white"/>
<path d="M25.5406 73.2L20.5156 16.5H76.0906L71.0656 73.2L48.2656 79.5" fill="#E44D26"/>
<path d="M48.2656 74.6945V21.1445H70.9906L66.6406 69.5195" fill="#F16529"/>
<path d="M30.7969 28.125H48.2719V35.1H38.4469L39.1219 42.225H48.3469V49.125H32.8219M33.0469 52.575H40.0219L40.5469 58.125L48.3469 60.225V67.5L34.0969 63.525" fill="#EBEBEB"/>
<path d="M65.6703 28.125H48.2703V35.1H65.0703M64.3953 42.15H48.2703V49.125H56.8203L55.9953 58.125L48.1953 60.225V67.425L62.4453 63.45" fill="white"/>
</svg>
