<svg width="96" height="96" viewBox="0 0 96 96" fill="none" xmlns="http://www.w3.org/2000/svg">
<path d="M78.9448 53.1C78.8773 53.04 78.8098 52.98 78.7423 52.92C79.0273 51.165 79.1623 49.5675 79.1623 48.0225C79.1623 46.32 78.9823 44.6775 78.7423 43.1625C80.0923 42.2925 80.6023 41.01 80.7748 40.56L80.8573 40.3725C81.1723 39.6525 82.0573 37.65 81.2023 35.3775C80.9473 34.32 80.4448 33.57 80.1373 33.15C79.7923 32.3625 79.3873 31.71 79.0498 31.1625C78.8548 30.84 78.6673 30.54 78.5323 30.255C78.1873 29.565 77.8123 28.9425 77.4898 28.395C77.2198 27.9375 76.9573 27.5025 76.7923 27.18C75.8398 25.1925 74.3998 23.8275 72.4873 23.1C71.6623 22.7925 70.8223 22.635 70.0048 22.635C69.3523 22.635 68.7073 22.7325 68.0398 22.9425C67.8148 23.0175 67.5823 23.0925 67.3573 23.1675C64.8598 21.15 62.1373 19.56 59.2348 18.4125C59.1748 18.105 59.0998 17.7975 59.0173 17.4675C58.5148 15.5625 57.3973 14.055 55.8598 13.215C54.8548 12.6375 53.4823 12 51.6298 12C50.3473 12.015 49.0648 12.03 47.7748 12.03C46.4848 12.03 45.2098 12.0225 43.8598 12C42.7273 12 41.8723 12.2775 41.3473 12.4425L41.2498 12.4725C38.6548 13.3725 36.8848 15.4125 36.3973 18.105C36.3823 18.195 36.3673 18.285 36.3598 18.375C33.4423 19.5375 30.7123 21.1275 28.2073 23.1225C27.9748 23.04 27.7423 22.965 27.5098 22.8975C26.8798 22.71 26.2198 22.6125 25.5448 22.6125C23.2198 22.6125 20.9623 23.7825 19.6198 25.7325C19.3123 26.19 19.1023 26.61 18.9448 26.9175C18.8998 27.0075 18.8623 27.09 18.8473 27.12L18.8023 27.1875C18.3223 27.9 17.9323 28.605 17.5873 29.2275C17.4148 29.535 17.2498 29.835 17.0623 30.15C16.7848 30.6225 16.5073 31.1025 16.2373 31.5825C15.8698 32.2275 15.5023 32.88 15.1123 33.5025L15.0673 33.585C14.4148 34.6875 14.1673 35.8575 14.0623 36.6975C13.8148 38.94 14.7448 41.1825 16.6198 42.8475C16.6948 42.915 16.7698 42.9825 16.8448 43.05C16.5898 44.64 16.4023 46.245 16.4023 47.9325C16.4023 49.62 16.5823 51.2775 16.8223 52.7925C15.4723 53.6625 14.9623 54.945 14.7898 55.395L14.7073 55.5825C14.3923 56.3025 13.5073 58.305 14.3623 60.5775C14.6173 61.635 15.1198 62.385 15.4273 62.805C15.7723 63.5925 16.1773 64.245 16.5073 64.7925C16.7023 65.115 16.8898 65.415 17.0248 65.7C17.3698 66.39 17.7448 67.0125 18.0673 67.5675C18.3373 68.025 18.5998 68.46 18.7648 68.7825C19.7173 70.77 21.1573 72.1425 23.0698 72.8625C23.8948 73.17 24.7348 73.3275 25.5523 73.3275C26.2048 73.3275 26.8498 73.23 27.5173 73.02C27.7423 72.945 27.9748 72.87 28.1998 72.795C30.7123 74.835 33.4423 76.4325 36.3523 77.565C36.3973 77.7975 36.4423 78.03 36.4873 78.27C36.8773 80.25 38.0398 81.8925 39.6898 82.7925C40.6948 83.3625 42.0673 84 43.9123 84C45.1948 83.985 46.4773 83.97 47.7673 83.97C49.0573 83.97 50.3323 83.9775 51.6223 84H51.6898C52.8223 84 53.7223 83.715 54.1948 83.565C56.7298 82.755 58.5073 80.8275 59.0773 78.255C59.1223 78.0375 59.1673 77.82 59.2123 77.6025C62.1598 76.455 64.8673 74.8725 67.3948 72.825C67.5898 72.8925 67.7998 72.96 68.0098 73.02C68.4973 73.1625 69.2548 73.3575 70.1473 73.3575C71.1298 73.3575 72.0598 73.1325 72.9373 72.6825L72.9748 72.6675C74.5498 72.03 75.6448 71.0475 76.2448 69.735C76.8598 68.82 77.3548 67.905 77.7973 67.08C78.0448 66.63 78.2848 66.1725 78.5623 65.7075C78.7873 65.325 79.0123 64.935 79.2298 64.5525C79.6348 63.8475 80.0398 63.15 80.4598 62.46C81.0148 61.5675 81.3598 60.5325 81.5173 59.2575C81.7648 57.015 80.8348 54.7725 78.9598 53.1075L78.9448 53.1Z" fill="white"/>
<path d="M40.2657 74.1381C36.0882 72.9456 32.4132 70.7481 29.2032 67.6731C28.1982 68.0331 27.1707 68.3931 26.1282 68.7381C25.6407 68.8881 25.1607 68.8356 24.6507 68.6406C23.7582 68.3031 23.2107 67.6356 22.8207 66.8181C22.2807 65.7381 21.5907 64.7556 21.0507 63.6756C20.5632 62.6706 19.8582 61.8006 19.4457 60.7581C19.2432 60.2481 18.7032 59.9031 18.7032 59.2581C18.2157 58.4631 18.6882 57.7581 18.9657 57.0606C19.0407 56.8731 19.1307 56.6256 19.3032 56.5506C19.9782 56.2506 20.3082 55.5681 20.8707 55.1481C21.1332 54.9606 21.4107 54.7506 21.7107 54.5256C21.2832 52.3431 20.9082 50.1681 20.9082 47.9331C20.9082 45.6981 21.2982 43.5756 21.7107 41.4531C20.9832 40.7706 20.3082 40.1106 19.6032 39.4806C18.8757 38.8356 18.4482 38.0406 18.5382 37.2081C18.5907 36.7506 18.7257 36.2631 18.9507 35.8806C19.6407 34.7631 20.2782 33.5856 20.9457 32.4531C21.4857 31.5456 21.9507 30.5931 22.5507 29.7081C22.8657 29.2506 23.0532 28.7256 23.3682 28.2456C23.9832 27.3531 25.2132 26.9181 26.2257 27.2256C27.1182 27.4881 27.9582 27.8856 28.8732 28.0581C28.9632 28.0806 29.0382 28.2081 29.1357 28.3056C32.3607 25.2531 36.0357 23.0781 40.2582 21.8031C40.4232 21.2931 40.4607 20.7381 40.6707 20.2131C40.8207 19.8156 40.7832 19.3206 40.8582 18.8856C41.0607 17.7456 41.7507 17.0856 42.7407 16.7406C43.0932 16.6281 43.4532 16.5156 43.8807 16.5156C46.4907 16.5531 49.1007 16.5531 51.7182 16.5156C52.4607 16.5156 53.0982 16.8156 53.6982 17.1606C54.2382 17.4456 54.5382 18.0531 54.6882 18.6231C54.9507 19.6656 55.1007 20.7306 55.3032 21.8256C59.5032 23.0406 63.1782 25.2156 66.3882 28.2906C67.3932 27.9306 68.4207 27.5706 69.4632 27.2256C69.9507 27.0756 70.4307 27.1281 70.9407 27.3231C71.8332 27.6606 72.3807 28.3281 72.7707 29.1456C73.3107 30.2256 74.0007 31.2081 74.5407 32.2881C75.0282 33.2931 75.7332 34.1631 76.1457 35.2056C76.3482 35.7156 76.8882 36.0606 76.8882 36.7056C77.3757 37.5006 76.9032 38.2056 76.6257 38.9031C76.5507 39.0906 76.4607 39.3381 76.2882 39.4131C75.6132 39.7131 75.2832 40.3956 74.7207 40.8156C74.4582 41.0031 74.1807 41.2131 73.8807 41.4381C74.3082 43.6206 74.6832 45.7956 74.6832 48.0306C74.6832 50.2656 74.3457 52.3881 73.8807 54.5106C74.6082 55.1931 75.2832 55.8531 75.9882 56.4831C76.7157 57.1281 77.1432 57.9231 77.0532 58.7556C77.0007 59.2131 76.8882 59.7006 76.6407 60.0831C75.9657 61.1856 75.3357 62.3181 74.6832 63.4356C73.8657 64.8156 73.1907 66.3156 72.2382 67.6206C72.0732 68.3406 71.3982 68.4006 70.9107 68.6631C70.3857 68.9481 69.8682 68.8731 69.2907 68.7006C68.4357 68.4531 67.6107 68.0181 66.7182 67.9056C66.6282 67.8831 66.5532 67.7556 66.4557 67.6581C63.2307 70.7481 59.5707 72.9456 55.3032 74.1756C55.1007 75.1956 54.9132 76.2606 54.6882 77.3031C54.4632 78.3231 53.7957 78.9681 52.8432 79.2756C52.4907 79.3881 52.1157 79.5006 51.7032 79.5006C49.0932 79.4631 46.4832 79.4631 43.8657 79.5006C43.1232 79.5006 42.4857 79.2006 41.8857 78.8556C41.3457 78.5706 41.0307 77.9631 40.9182 77.3931C40.7157 76.2756 40.5057 75.2331 40.2807 74.1306L40.2657 74.1381ZM41.4807 57.4431C41.8557 57.2331 42.2832 57.1056 42.2982 56.6481C42.3357 55.9656 42.4257 55.2681 42.2832 54.6231C42.0207 53.5206 41.5557 52.4631 41.2782 51.3606C41.0907 50.6631 40.6782 49.9956 40.7007 49.2381C40.1007 47.7381 39.7332 46.1706 39.2232 44.6481C38.8107 43.3956 38.5107 42.1056 38.0682 40.8756C37.8282 40.1931 37.7682 39.4356 37.3257 38.8281C37.2882 38.7681 37.2732 38.7306 37.2732 38.7306C36.7707 38.3931 36.2457 38.5056 35.7957 38.5056C35.5332 38.7531 35.3082 38.9631 35.1057 39.1506C35.0907 39.7581 34.6557 40.2306 34.7307 40.8156C34.0782 42.2931 33.8007 43.8831 33.2532 45.4056C32.9757 46.1856 32.8032 46.9806 32.5782 47.7756C32.3757 48.5706 31.9257 49.2906 31.9257 50.1456C31.2132 51.7581 30.8607 53.4831 30.3432 55.1706C30.2157 55.5906 30.1407 55.9881 30.3957 56.3856C30.4707 56.4981 30.4332 56.6706 30.4332 56.6481C30.7332 56.9706 30.9582 57.1956 31.1457 57.4281H32.2632C32.5257 57.0906 32.7882 56.7681 33.0282 56.4456C32.9757 55.3656 33.1932 54.6456 33.6807 53.4906H39.1632C39.3132 54.0981 39.3882 54.6831 39.5907 55.2306C39.6807 55.4556 39.7782 55.6881 39.7407 55.9131C39.6882 56.6106 39.9057 57.1656 40.6932 57.4281C40.8807 57.4506 41.1582 57.4506 41.4732 57.4506L41.4807 57.4431ZM45.8457 57.4431C46.3482 57.4056 46.9257 57.5556 47.3382 57.1431C47.4882 56.9556 47.6157 56.7606 47.8032 56.4981V50.6256C49.1682 50.6256 50.5107 50.5656 51.8307 50.6481C52.6332 50.6856 53.2857 50.4381 53.9232 50.0406C54.2232 49.8531 54.4857 49.5681 54.7407 49.2981C55.4307 48.6156 55.7682 47.7831 55.7832 46.7931V42.1506C55.7832 41.9256 55.7307 41.6781 55.6707 41.4531C55.4682 40.6356 55.0332 40.0281 54.4557 39.5031C53.7807 38.8806 53.0007 38.4981 52.0707 38.4981H45.8007C45.5982 38.7231 45.3882 38.9556 45.1482 39.1806V56.7906C45.3882 57.0006 45.6132 57.2256 45.8382 57.4506L45.8457 57.4431ZM59.2782 57.4431H63.1557C63.3807 57.2181 63.6057 56.9856 63.8307 56.7831V55.6431C63.5532 55.1106 63.1182 54.7881 62.5632 54.7356V41.2806C62.9757 41.0706 63.3282 40.8831 63.7407 40.6581C63.7932 40.1631 63.8307 39.6531 63.8682 39.2931C63.5682 38.9556 63.3657 38.7081 63.1932 38.5131H59.3907C59.0757 38.7981 58.8507 39.0081 58.5732 39.2706C58.6257 39.7281 58.7007 40.2381 58.7607 40.6731C59.2107 40.8981 59.5632 41.0931 59.8782 41.2581V54.7506C59.6907 54.7881 59.4882 54.7506 59.4132 54.8481C59.1507 55.1106 58.7007 55.1856 58.6107 55.6281V56.7681C58.8357 56.9931 59.0607 57.2256 59.2857 57.4506L59.2782 57.4431Z" fill="#66C8FF"/>
<path d="M38.1775 50.5795C37.075 50.617 35.92 50.6395 34.765 50.677C34.7275 50.677 34.675 50.752 34.5625 50.8495C34.5775 49.672 35.2375 48.727 35.305 47.647C35.8675 46.702 35.92 45.5845 36.295 44.5195C36.4075 44.632 36.5725 44.7445 36.5725 44.842C36.5875 45.6595 37.06 46.357 37.21 47.137C37.3225 47.6695 37.6225 48.1795 37.6975 48.712C37.7725 49.3945 38.2225 49.9045 38.185 50.587L38.1775 50.5795Z" fill="#66C8FF"/>
<path d="M53.1903 46.9067C53.0628 47.1167 52.9503 47.3267 52.8003 47.5142C52.5378 47.8142 52.2003 47.9867 51.7728 47.9717C50.4678 47.9492 49.1628 47.9717 47.8203 47.9717V41.1467C49.1853 41.1467 50.5803 41.1242 51.9603 41.1467C52.6128 41.1692 53.1753 41.8517 53.1903 42.5717V46.9142V46.9067Z" fill="#66C8FF"/>
</svg>
