<svg width="96" height="96" viewBox="0 0 96 96" fill="none" xmlns="http://www.w3.org/2000/svg">
<g clip-path="url(#clip0_2286_1027)">
<path d="M79.5 12H16.5C14.0147 12 12 14.0147 12 16.5V79.5C12 81.9853 14.0147 84 16.5 84H79.5C81.9853 84 84 81.9853 84 79.5V16.5C84 14.0147 81.9853 12 79.5 12Z" fill="white"/>
<path d="M79.5 16.5H16.5V79.5H79.5V16.5Z" fill="#F7DF1E"/>
<path d="M58.7875 65.7023C60.0625 67.8023 61.7125 69.3023 64.6375 69.3023C67.5625 69.3023 68.6875 68.1023 68.6875 66.3773C68.6875 64.6523 67.1125 63.6023 64.4125 62.4773L62.9125 61.8773C58.6375 60.0773 55.7875 57.7523 55.7875 52.9523C55.7875 48.1523 59.1625 45.1523 64.4875 45.1523C69.8125 45.1523 70.9375 46.4273 72.8875 49.8773L68.3125 52.8023C67.2625 51.0023 66.2125 50.2523 64.4875 50.2523C62.7625 50.2523 61.6375 51.3773 61.6375 52.8023C61.6375 54.2273 62.7625 55.2773 65.3125 56.4023L66.8125 57.0023C71.8375 59.1773 74.6875 61.3523 74.6875 66.3023C74.6875 71.2523 70.4875 74.5523 64.8625 74.5523C59.2375 74.5523 55.7875 71.9273 54.0625 68.4773L58.8625 65.7023H58.7875ZM37.8625 66.2273C38.7625 67.8773 39.6625 69.3023 41.6875 69.3023C43.7125 69.3023 44.8375 68.5523 44.8375 65.5523V45.4523H50.7625V65.6273C50.7625 71.7773 47.1625 74.5523 41.9125 74.5523C36.6625 74.5523 34.4125 72.0773 33.0625 69.1523L37.8625 66.2273Z" fill="black"/>
</g>
<defs>
<clipPath id="clip0_2286_1027">
<rect width="72" height="72" fill="white" transform="translate(12 12)"/>
</clipPath>
</defs>
</svg>
