<svg width="96" height="96" viewBox="0 0 96 96" fill="none" xmlns="http://www.w3.org/2000/svg">
<path d="M48.1844 84C47.8094 84 47.3594 84 46.9844 83.85L24.3344 77.55C22.5344 77.025 21.2594 75.45 21.0344 73.65L16.0094 16.95C15.9344 15.675 16.3094 14.475 17.1344 13.5C17.9594 12.6 19.1594 12 20.4344 12H76.0094C77.2844 12 78.4844 12.525 79.3094 13.5C80.1344 14.4 80.5844 15.675 80.4344 16.95L75.4094 73.65C75.2594 75.525 73.9094 77.1 72.1094 77.55L49.3844 83.85C49.0094 83.925 48.5594 84 48.1844 84Z" fill="white"/>
<path d="M25.4625 73.2L20.4375 16.5H76.0125L70.9875 73.2L48.2625 79.5L25.6125 73.2H25.4625Z" fill="#264DE4"/>
<path d="M66.5547 69.6063L70.9047 21.1562H48.1797V74.7063L66.5547 69.6063Z" fill="#2965F1"/>
<path d="M31.9703 42.143L32.5703 49.118H48.0953V42.143H31.8953H31.9703ZM31.3703 35.018H48.1703V28.043H30.6953L31.2953 35.018H31.3703ZM48.1703 60.218L40.4453 58.118L39.9203 52.568H32.9453L33.9203 63.518L48.1703 67.493V60.218Z" fill="#EBEBEB"/>
<path d="M48.1797 42.1555V49.1305H56.7297L55.9047 58.1305L48.1797 60.2305V67.4305L62.4297 63.4555V62.2555C62.5047 62.2555 64.1547 43.9555 64.1547 43.9555L64.3047 42.0805L65.5797 27.9805H48.1797V34.9555H58.0047L57.4047 42.0805H48.2547L48.1797 42.1555Z" fill="white"/>
</svg>
