<svg width="96" height="96" viewBox="0 0 96 96" fill="none" xmlns="http://www.w3.org/2000/svg">
<g clip-path="url(#clip0_2286_1041)">
<path d="M73.35 12H22.65C16.7682 12 12 16.7682 12 22.65V73.35C12 79.2318 16.7682 84 22.65 84H73.35C79.2318 84 84 79.2318 84 73.35V22.65C84 16.7682 79.2318 12 73.35 12Z" fill="white"/>
<path d="M73.35 16.5H22.65C19.2534 16.5 16.5 19.2534 16.5 22.65V73.35C16.5 76.7466 19.2534 79.5 22.65 79.5H73.35C76.7466 79.5 79.5 76.7466 79.5 73.35V22.65C79.5 19.2534 76.7466 16.5 73.35 16.5Z" fill="#3178C6"/>
<path d="M73.35 16.5H22.65C19.2534 16.5 16.5 19.2534 16.5 22.65V73.35C16.5 76.7466 19.2534 79.5 22.65 79.5H73.35C76.7466 79.5 79.5 76.7466 79.5 73.35V22.65C79.5 19.2534 76.7466 16.5 73.35 16.5Z" fill="#3178C6"/>
<path fill-rule="evenodd" clip-rule="evenodd" d="M55.5172 66.5945V72.7445C56.4922 73.2695 57.6922 73.6445 59.0422 73.8695C60.3922 74.0945 61.8172 74.2445 63.3922 74.2445C64.9672 74.2445 66.2422 74.0945 67.5922 73.7945C68.9422 73.4945 70.0672 73.0445 71.1172 72.3695C72.0922 71.6945 72.9172 70.8695 73.5172 69.8195C74.1172 68.7695 74.4172 67.4945 74.4172 65.9195C74.4172 64.3445 74.2672 63.8195 73.8922 62.9945C73.5172 62.1695 73.0672 61.4195 72.4672 60.7445C71.8672 60.0695 71.1172 59.4695 70.2172 59.0195C69.3172 58.5695 68.3422 58.0445 67.2172 57.5195C66.3922 57.2195 65.7172 56.8445 65.0422 56.5445C64.3672 56.2445 63.8422 55.9445 63.3922 55.5695C62.9422 55.2695 62.5672 54.8945 62.3422 54.5195C62.1172 54.1445 61.9672 53.7695 61.9672 53.2445C61.9672 52.7195 62.0422 52.4195 62.2672 52.1195C62.4922 51.8195 62.7922 51.5195 63.1672 51.2195C63.5422 50.9945 64.0672 50.7695 64.6672 50.6195C65.2672 50.4695 65.8672 50.3945 66.6172 50.3945C67.3672 50.3945 67.6672 50.3945 68.2672 50.5445C68.8672 50.6195 69.3922 50.7695 69.9922 50.9195C70.5922 51.0695 71.1172 51.2945 71.6422 51.5195C72.1672 51.7445 72.6922 52.0445 73.1422 52.3445V46.5695C72.2422 46.1945 71.1922 45.9695 70.0672 45.7445C68.9422 45.5195 67.6672 45.5195 66.2422 45.5195C64.8172 45.5195 63.3922 45.6695 62.1172 45.9695C60.8422 46.2695 59.6422 46.7945 58.6672 47.4695C57.6922 48.1445 56.8672 48.9695 56.3422 50.0195C55.7422 51.0695 55.4422 52.2695 55.4422 53.6945C55.4422 55.1195 55.9672 57.0695 57.0172 58.4195C58.0672 59.6945 59.7172 60.8195 61.8172 61.7195C62.6422 62.0945 63.4672 62.3945 64.2172 62.7695C64.9672 63.1445 65.5672 63.4445 66.0922 63.8195C66.6172 64.1945 67.0672 64.5695 67.3672 65.0195C67.6672 65.4695 67.8172 65.9195 67.8172 66.4445C67.8172 66.9695 67.7422 67.1945 67.5172 67.5695C67.2922 67.9445 67.0672 68.1695 66.6172 68.4695C66.1672 68.7695 65.7172 68.9195 65.1172 69.0695C64.5172 69.2195 63.8422 69.2945 63.0922 69.2945C61.7422 69.2945 60.4672 69.0695 59.1172 68.6195C57.8422 68.1695 56.5672 67.4195 55.4422 66.5195L55.5172 66.5945ZM45.1672 51.4445H53.0422V46.4195H30.9922V51.4445H38.8672V73.9445H45.0922V51.4445H45.1672Z" fill="white"/>
</g>
<defs>
<clipPath id="clip0_2286_1041">
<rect width="72" height="72" fill="white" transform="translate(12 12)"/>
</clipPath>
</defs>
</svg>
