<svg width="96" height="96" viewBox="0 0 96 96" fill="none" xmlns="http://www.w3.org/2000/svg">
<g clip-path="url(#clip0_2286_1089)">
<path d="M48.0375 83.925C45.7875 83.925 43.62 83.025 41.97 81.45L14.475 53.955C12.825 52.305 12 50.2125 12 47.8875C12 45.5625 12.9 43.47 14.475 41.82L36.1275 20.1675L41.82 14.475C43.395 12.825 45.5625 12 47.8875 12C50.2125 12 52.305 12.9 53.955 14.55L81.45 42.045C83.1 43.695 83.925 45.7875 83.925 48.1125C83.925 50.4375 83.025 52.53 81.45 54.18L54.105 81.525C52.455 83.175 50.3625 84 48.0375 84V83.925Z" fill="white"/>
<path d="M78.19 45.1919L50.695 17.6969C49.12 16.1219 46.5775 16.1219 44.9275 17.6969L39.235 23.3894L46.5025 30.6569C48.1525 30.0569 50.095 30.5069 51.445 31.7819C52.795 33.1319 53.17 35.0819 52.57 36.7994L59.5375 43.7669C61.2625 43.1669 63.205 43.5419 64.555 44.8919C66.43 46.7669 66.43 49.8344 64.555 51.7094C62.68 53.5844 59.6125 53.5844 57.7375 51.7094C56.3125 50.2844 55.9375 48.1844 56.6875 46.4669L50.17 39.9494V57.1094C50.62 57.3344 51.07 57.6344 51.445 58.0094C53.32 59.8844 53.32 62.9519 51.445 64.8269C49.57 66.7019 46.5025 66.7019 44.6275 64.8269C42.7525 62.9519 42.7525 59.8844 44.6275 58.0094C45.0775 57.5594 45.6025 57.1844 46.2025 56.9594V39.6494C45.6025 39.4244 45.0775 39.0494 44.6275 38.5994C43.2025 37.1744 42.8275 35.0744 43.5775 33.3569L36.46 26.2394L17.65 45.0419C16.075 46.6169 16.075 49.1594 17.65 50.8094L45.145 78.3044C46.72 79.8794 49.2625 79.8794 50.9125 78.3044L78.2575 50.9594C79.8325 49.3844 79.8325 46.8419 78.2575 45.1919H78.1825H78.19Z" fill="#F05133"/>
</g>
<defs>
<clipPath id="clip0_2286_1089">
<rect width="72" height="72" fill="white" transform="translate(12 12)"/>
</clipPath>
</defs>
</svg>
