<svg width="96" height="96" viewBox="0 0 96 96" fill="none" xmlns="http://www.w3.org/2000/svg">
<path fill-rule="evenodd" clip-rule="evenodd" d="M72.5373 46.2128C71.1126 46.2128 69.6954 45.5378 68.8706 44.3378L63.3294 36.5452C62.3546 35.1952 62.2046 33.4027 62.9544 31.9027C63.2544 31.3026 63.6293 30.8526 64.1542 30.4776C62.9544 28.9776 61.1623 28.0776 59.1378 28.0776C57.1133 28.0776 53.8215 29.9526 52.9967 32.6452C52.6218 33.8452 51.8719 34.8202 50.8222 35.3452C50.1473 35.7202 49.4725 35.8702 48.7226 35.8702C47.9728 35.8702 47.8228 35.8702 47.373 35.6452C46.0982 35.2702 44.7485 34.9702 43.4063 34.8202C42.0566 34.6702 40.8569 33.9952 40.1146 32.9452C39.3723 31.8952 39.1398 30.4701 39.4397 29.2026C39.6647 28.2276 40.0396 27.3276 40.4145 26.4351C41.4643 24.0351 42.889 21.8676 44.756 19.9926C46.6306 18.1175 48.8726 16.625 51.2721 15.65C53.7465 14.6 56.4384 14 59.2128 14C61.9872 14 64.6791 14.525 67.1535 15.575C69.6279 16.625 71.795 18.05 73.6695 19.9176C75.5441 21.7851 77.0363 23.9601 78.011 26.3601C78.4609 27.3351 78.7609 28.3851 79.0608 29.4276C80.4105 29.6526 81.5353 30.5526 82.2026 31.7526C82.9524 33.2527 82.8775 35.0452 81.8277 36.3952L76.2864 44.1878C75.4616 45.3878 74.1119 46.0628 72.6198 46.0628L72.5448 46.2128H72.5373Z" fill="white"/>
<path fill-rule="evenodd" clip-rule="evenodd" d="M70.2843 81.7931C69.6095 81.7931 68.8597 81.6431 68.2598 81.2681C67.135 80.6681 66.3102 79.6181 65.9353 78.4256H51.0362C48.9367 78.4256 47.1446 77.0006 46.6947 74.9831C46.2448 72.9581 47.2195 70.8656 49.0941 69.9656C49.2441 69.9656 49.3191 69.8156 49.469 69.8156H49.619C51.3436 68.9905 52.8358 67.9405 54.2604 66.673C54.4104 66.523 54.6354 66.373 54.7853 66.148L55.3102 65.623C55.5352 65.398 55.7601 65.173 55.9101 64.948C56.7349 63.823 58.0846 63.223 59.4268 63.223H66.0178C66.3177 62.023 67.1425 60.973 68.3423 60.3805C69.0171 60.0805 69.692 59.8555 70.3668 59.8555C71.0417 59.8555 72.2414 60.1555 72.9912 60.6805L82.1242 67.198C83.3239 68.023 83.9987 69.373 83.9987 70.8656C83.9987 72.3581 83.3239 73.7081 82.1242 74.5331L72.9912 81.0506C72.2414 81.5756 71.2666 81.8756 70.3668 81.8756L70.2918 81.8006L70.2843 81.7931Z" fill="white"/>
<path fill-rule="evenodd" clip-rule="evenodd" d="M78.066 33.8503L72.5248 41.6428L66.9835 33.8503H70.0503C69.8254 28.0827 65.034 23.4402 59.1928 23.4402C53.3516 23.4402 50.0598 26.7327 48.7851 31.2328C47.2105 30.7078 45.4934 30.4078 43.8438 30.2578C44.0687 29.5077 44.2936 28.8327 44.5936 28.0827C45.4184 26.2077 46.5431 24.4902 48.0353 22.9902C49.46 21.5652 51.1771 20.3652 53.1267 19.6227C55.0762 18.7977 57.1682 18.3477 59.3428 18.3477C61.5173 18.3477 63.6093 18.7977 65.5589 19.6227C67.4334 20.4477 69.1505 21.5727 70.6502 22.9902C72.0749 24.4152 73.2746 26.1327 74.0919 28.0827C74.8418 29.8828 75.2917 31.8253 75.3666 33.8503H78.4335H78.0585H78.066Z" fill="#FF7F69"/>
<path fill-rule="evenodd" clip-rule="evenodd" d="M70.2797 77.294V73.9265H51.0391C51.189 73.9265 51.339 73.7765 51.414 73.7015C53.5135 72.7265 55.4556 71.3765 57.1052 69.809C57.3301 69.5839 57.5551 69.3589 57.78 69.2089C58.005 68.9839 58.2299 68.7589 58.4549 68.4589C58.7548 68.1589 58.9798 67.8589 59.2797 67.5589H70.2122V64.1914L79.3452 70.709L70.2122 77.2265L70.2872 77.3015L70.2797 77.294Z" fill="#7D65F5"/>
<path fill-rule="evenodd" clip-rule="evenodd" d="M16.5158 78.4915C14.0414 78.4915 12.0243 76.4665 12.0243 73.999V67.6314C12.0243 65.1564 14.0489 63.1389 16.5158 63.1389H18.1654L12.8491 55.7213C11.8744 54.3713 11.7244 52.5788 12.4742 51.0788C13.1491 49.7288 14.4988 48.8288 15.9909 48.6788C16.2909 46.7288 16.8907 44.8612 17.6406 43.0612C18.9902 39.9187 20.8573 37.1437 23.1818 34.7512C25.5813 32.3511 28.3481 30.4836 31.4899 29.2086C34.7067 27.8586 38.0809 27.1836 41.5977 27.1836C45.1144 27.1836 42.8724 27.1836 43.6222 27.2586C45.7217 27.4086 47.7388 27.8586 49.6883 28.4586C50.5131 28.6836 51.113 28.9836 51.7879 29.2836C54.8547 30.5586 57.629 32.4261 60.021 34.8262C62.413 37.2262 64.2875 39.9937 65.5622 43.1362C66.9119 46.3538 67.5868 49.7288 67.5868 53.2463C67.5868 56.7638 66.9119 60.1389 65.5622 63.3564C64.4375 66.1239 62.7954 68.5989 60.7708 70.774C60.7708 70.774 60.021 71.599 59.946 71.599C59.796 71.749 59.2712 72.274 59.1962 72.349C57.2466 74.149 55.1546 75.5665 52.7551 76.6915C52.4552 76.8415 52.1553 76.9915 51.7804 77.1415H51.6304C49.4559 78.0415 47.1389 78.5665 44.6645 78.5665H16.5158V78.4915ZM42.8049 63.1389C48.2711 63.1389 52.8376 58.7214 52.9126 53.2538V53.1038C52.9126 46.8863 47.8962 41.8687 41.6801 41.8687C35.464 41.8687 32.9221 44.7862 31.1975 48.9113C32.1723 49.2863 33.0721 50.0363 33.522 51.0113C34.2718 52.5113 34.1968 54.3038 33.1471 55.6538L27.8308 63.0714H42.7299L42.8049 63.1464V63.1389Z" fill="white"/>
<path fill-rule="evenodd" clip-rule="evenodd" d="M63.1779 53.1014C63.1779 56.019 62.5781 58.794 61.4533 61.4865C60.4785 63.7365 59.1288 65.829 57.4867 67.629C57.2618 67.854 57.0368 68.0791 56.8119 68.3041L56.212 68.9041C54.6373 70.4041 52.7703 71.6041 50.8207 72.5716C50.5208 72.7216 50.2958 72.7966 49.9959 72.9466C48.3463 73.6216 46.6292 73.9966 44.8296 73.9966H16.5234V67.629H42.805C50.7457 67.629 57.2543 61.2615 57.4042 53.3264V53.1014C57.4042 44.4164 50.3633 37.3738 41.6803 37.3738C32.9972 37.3738 25.9563 44.4164 25.9563 53.1014H29.623L23.107 62.2365L16.5909 53.1014H20.2576C20.2576 50.1839 20.8575 47.4089 21.9822 44.7164C23.107 42.1663 24.6066 39.8488 26.6237 37.8988C28.5732 35.9488 30.8902 34.3813 33.4396 33.2563C36.064 32.1313 38.9059 31.5312 41.8227 31.5312C44.7396 31.5312 42.9475 31.5312 43.5473 31.5312C45.272 31.6813 46.9141 31.9813 48.4887 32.5063C49.0886 32.7313 49.6135 32.8813 50.2133 33.1813C52.7628 34.3063 55.0797 35.8063 57.0293 37.8238C58.9789 39.7738 60.546 42.0913 61.6708 44.6414C62.7955 47.2664 63.3954 50.1089 63.3954 53.0264L63.1704 53.1014H63.1779Z" fill="#F565CB"/>
</svg>
