<svg width="121" height="120" viewBox="0 0 121 120" fill="none" xmlns="http://www.w3.org/2000/svg">
<g clip-path="url(#clip0_2227_428)">
<path d="M1 68.1027L3.28828 77.8795L37.074 71.0491L10.4896 93.2143L16.7487 101.049L44.2754 80.2902L29.94 111.696L39.0258 116.049L54.7745 85.5134L55.5822 120L65.6775 120L66.4851 85.6473L82.3012 116.384L91.387 112.031L77.1189 80.7589L104.78 101.652L111.039 93.75L84.5895 71.7188L118.577 78.6161L120.865 68.8393L87.3489 60.4018L121 51.8973L118.779 42.1205L84.926 48.9509L111.51 26.7857L105.251 18.9509L77.7246 39.7098L92.06 8.30357L82.9742 3.95089L67.2255 34.5536L66.4178 -7.62939e-06L56.3225 -7.62939e-06L55.5149 34.3527L39.7661 3.61607L30.613 7.96875L44.8811 39.2411L17.2199 18.3482L10.9607 26.25L37.4105 48.2812L3.42289 41.3839L1.20191 51.1607L34.6512 59.5982L1 68.1027Z" fill="#FF834F"/>
</g>
<defs>
<clipPath id="clip0_2227_428">
<rect width="120" height="120" fill="white" transform="matrix(-1 0 0 -1 121 120)"/>
</clipPath>
</defs>
</svg>
