<svg width="264" height="263" viewBox="0 0 264 263" fill="none" xmlns="http://www.w3.org/2000/svg">
<g clip-path="url(#clip0_23172_29)">
<path d="M263.805 149.258L258.79 170.686L184.742 155.716L243.007 204.295L229.289 221.466L168.959 175.969L200.378 244.801L180.465 254.341L145.949 187.417L144.179 263H122.053L120.283 187.71L85.6196 255.075L65.7065 245.535L96.9774 176.997L36.3532 222.787L22.6353 205.469L80.6045 157.184L6.11484 172.3L1.0997 150.873L74.5568 132.381L0.804687 113.742L5.67233 92.3142L79.8669 107.284L21.6028 58.7054L35.3207 41.534L95.6499 87.0307L64.2315 18.1987L84.1446 8.65904L118.661 75.7299L120.431 0H142.556L144.326 75.2896L178.842 7.92523L198.903 17.4649L167.632 86.0033L228.256 40.2132L241.974 57.5312L184.005 105.816L258.495 90.6998L263.362 112.127L190.053 130.619L263.805 149.258Z" fill="#679AAC"/>
</g>
<defs>
<clipPath id="clip0_23172_29">
<rect width="263" height="263" fill="white" transform="matrix(1 0 0 -1 0.804688 263)"/>
</clipPath>
</defs>
</svg>
